%TF.GenerationSoftware,KiCad,Pcbnew,8.0.8*%
%TF.CreationDate,2025-08-24T09:26:36-04:00*%
%TF.ProjectId,project-protoboard,70726f6a-6563-4742-9d70-726f746f626f,rev?*%
%TF.SameCoordinates,Original*%
%TF.FileFunction,Copper,L1,Top*%
%TF.FilePolarity,Positive*%
%FSLAX46Y46*%
G04 Gerber Fmt 4.6, Leading zero omitted, Abs format (unit mm)*
G04 Created by KiCad (PCBNEW 8.0.8) date 2025-08-24 09:26:36*
%MOMM*%
%LPD*%
G01*
G04 APERTURE LIST*
G04 Aperture macros list*
%AMRoundRect*
0 Rectangle with rounded corners*
0 $1 Rounding radius*
0 $2 $3 $4 $5 $6 $7 $8 $9 X,Y pos of 4 corners*
0 Add a 4 corners polygon primitive as box body*
4,1,4,$2,$3,$4,$5,$6,$7,$8,$9,$2,$3,0*
0 Add four circle primitives for the rounded corners*
1,1,$1+$1,$2,$3*
1,1,$1+$1,$4,$5*
1,1,$1+$1,$6,$7*
1,1,$1+$1,$8,$9*
0 Add four rect primitives between the rounded corners*
20,1,$1+$1,$2,$3,$4,$5,0*
20,1,$1+$1,$4,$5,$6,$7,0*
20,1,$1+$1,$6,$7,$8,$9,0*
20,1,$1+$1,$8,$9,$2,$3,0*%
%AMFreePoly0*
4,1,19,0.500000,-0.750000,0.000000,-0.750000,0.000000,-0.744911,-0.071157,-0.744911,-0.207708,-0.704816,-0.327430,-0.627875,-0.420627,-0.520320,-0.479746,-0.390866,-0.500000,-0.250000,-0.500000,0.250000,-0.479746,0.390866,-0.420627,0.520320,-0.327430,0.627875,-0.207708,0.704816,-0.071157,0.744911,0.000000,0.744911,0.000000,0.750000,0.500000,0.750000,0.500000,-0.750000,0.500000,-0.750000,
$1*%
%AMFreePoly1*
4,1,19,0.000000,0.744911,0.071157,0.744911,0.207708,0.704816,0.327430,0.627875,0.420627,0.520320,0.479746,0.390866,0.500000,0.250000,0.500000,-0.250000,0.479746,-0.390866,0.420627,-0.520320,0.327430,-0.627875,0.207708,-0.704816,0.071157,-0.744911,0.000000,-0.744911,0.000000,-0.750000,-0.500000,-0.750000,-0.500000,0.750000,0.000000,0.750000,0.000000,0.744911,0.000000,0.744911,
$1*%
G04 Aperture macros list end*
%TA.AperFunction,SMDPad,CuDef*%
%ADD10RoundRect,0.475000X-0.475000X0.475000X-0.475000X-0.475000X0.475000X-0.475000X0.475000X0.475000X0*%
%TD*%
%TA.AperFunction,SMDPad,CuDef*%
%ADD11RoundRect,0.475000X-0.475000X-0.475000X0.475000X-0.475000X0.475000X0.475000X-0.475000X0.475000X0*%
%TD*%
%TA.AperFunction,SMDPad,CuDef*%
%ADD12RoundRect,0.475000X0.475000X0.475000X-0.475000X0.475000X-0.475000X-0.475000X0.475000X-0.475000X0*%
%TD*%
%TA.AperFunction,SMDPad,CuDef*%
%ADD13FreePoly0,180.000000*%
%TD*%
%TA.AperFunction,SMDPad,CuDef*%
%ADD14FreePoly1,180.000000*%
%TD*%
%TA.AperFunction,ComponentPad*%
%ADD15C,4.500000*%
%TD*%
%TA.AperFunction,SMDPad,CuDef*%
%ADD16R,1.550000X0.600000*%
%TD*%
%TA.AperFunction,SMDPad,CuDef*%
%ADD17R,1.800000X1.200000*%
%TD*%
%TA.AperFunction,SMDPad,CuDef*%
%ADD18FreePoly0,0.000000*%
%TD*%
%TA.AperFunction,SMDPad,CuDef*%
%ADD19FreePoly1,0.000000*%
%TD*%
%TA.AperFunction,SMDPad,CuDef*%
%ADD20FreePoly0,90.000000*%
%TD*%
%TA.AperFunction,SMDPad,CuDef*%
%ADD21FreePoly1,90.000000*%
%TD*%
%TA.AperFunction,ViaPad*%
%ADD22C,0.800000*%
%TD*%
%TA.AperFunction,Conductor*%
%ADD23C,0.500000*%
%TD*%
%TA.AperFunction,Conductor*%
%ADD24C,0.254000*%
%TD*%
G04 APERTURE END LIST*
D10*
%TO.P,J9,1,Pin_1*%
%TO.N,Net-(J9-Pin_1)*%
X81280000Y-27940000D03*
%TO.P,J9,2,Pin_2*%
X83820000Y-27940000D03*
%TO.P,J9,3,Pin_3*%
X86360000Y-27940000D03*
%TO.P,J9,4,Pin_4*%
X88900000Y-27940000D03*
%TO.P,J9,5,Pin_5*%
X91440000Y-27940000D03*
%TO.P,J9,6,Pin_6*%
X93980000Y-27940000D03*
%TD*%
D11*
%TO.P,J37,1,Pin_1*%
%TO.N,Net-(J37-Pin_1)*%
X96520000Y-96520000D03*
%TO.P,J37,2,Pin_2*%
X96520000Y-93980000D03*
%TO.P,J37,3,Pin_3*%
X96520000Y-91440000D03*
%TO.P,J37,4,Pin_4*%
X96520000Y-88900000D03*
%TO.P,J37,5,Pin_5*%
X96520000Y-86360000D03*
%TO.P,J37,6,Pin_6*%
X96520000Y-83820000D03*
%TO.P,J37,7,Pin_7*%
X96520000Y-81280000D03*
%TO.P,J37,8,Pin_8*%
X96520000Y-78740000D03*
%TO.P,J37,9,Pin_9*%
X96520000Y-76200000D03*
%TO.P,J37,10,Pin_10*%
X96520000Y-73660000D03*
%TO.P,J37,11,Pin_11*%
X96520000Y-71120000D03*
%TO.P,J37,12,Pin_12*%
X96520000Y-68580000D03*
%TO.P,J37,13,Pin_13*%
X96520000Y-66040000D03*
%TO.P,J37,14,Pin_14*%
X96520000Y-63500000D03*
%TO.P,J37,15,Pin_15*%
X96520000Y-60960000D03*
%TO.P,J37,16,Pin_16*%
X96520000Y-58420000D03*
%TO.P,J37,17,Pin_17*%
X96520000Y-55880000D03*
%TO.P,J37,18,Pin_18*%
X96520000Y-53340000D03*
%TO.P,J37,19,Pin_19*%
X96520000Y-50800000D03*
%TO.P,J37,20,Pin_20*%
X96520000Y-48260000D03*
%TO.P,J37,21,Pin_21*%
X96520000Y-45720000D03*
%TO.P,J37,22,Pin_22*%
X96520000Y-43180000D03*
%TO.P,J37,23,Pin_23*%
X96520000Y-40640000D03*
%TO.P,J37,24,Pin_24*%
X96520000Y-38100000D03*
%TO.P,J37,25,Pin_25*%
X96520000Y-35560000D03*
%TO.P,J37,26,Pin_26*%
X96520000Y-33020000D03*
%TO.P,J37,27,Pin_27*%
X96520000Y-30480000D03*
%TO.P,J37,28,Pin_28*%
X96520000Y-27940000D03*
%TO.P,J37,29,Pin_29*%
X96520000Y-25400000D03*
%TO.P,J37,30,Pin_30*%
X96520000Y-22860000D03*
%TD*%
D12*
%TO.P,J70,1,Pin_1*%
%TO.N,Net-(J70-Pin_1)*%
X116840000Y-27940000D03*
%TO.P,J70,2,Pin_2*%
X116840000Y-30480000D03*
%TO.P,J70,3,Pin_3*%
X116840000Y-33020000D03*
%TO.P,J70,4,Pin_4*%
X116840000Y-35560000D03*
%TO.P,J70,5,Pin_5*%
X116840000Y-38100000D03*
%TO.P,J70,6,Pin_6*%
X116840000Y-40640000D03*
%TO.P,J70,7,Pin_7*%
X116840000Y-43180000D03*
%TO.P,J70,8,Pin_8*%
X116840000Y-45720000D03*
%TO.P,J70,9,Pin_9*%
X116840000Y-48260000D03*
%TO.P,J70,10,Pin_10*%
X116840000Y-50800000D03*
%TO.P,J70,11,Pin_11*%
X116840000Y-53340000D03*
%TO.P,J70,12,Pin_12*%
X116840000Y-55880000D03*
%TO.P,J70,13,Pin_13*%
X116840000Y-58420000D03*
%TO.P,J70,14,Pin_14*%
X116840000Y-60960000D03*
%TO.P,J70,15,Pin_15*%
X116840000Y-63500000D03*
%TO.P,J70,16,Pin_16*%
X116840000Y-66040000D03*
%TO.P,J70,17,Pin_17*%
X116840000Y-68580000D03*
%TO.P,J70,18,Pin_18*%
X116840000Y-71120000D03*
%TO.P,J70,19,Pin_19*%
X116840000Y-73660000D03*
%TO.P,J70,20,Pin_20*%
X116840000Y-76200000D03*
%TO.P,J70,21,Pin_21*%
X116840000Y-78740000D03*
%TO.P,J70,22,Pin_22*%
X116840000Y-81280000D03*
%TO.P,J70,23,Pin_23*%
X116840000Y-83820000D03*
%TO.P,J70,24,Pin_24*%
X116840000Y-86360000D03*
%TO.P,J70,25,Pin_25*%
X116840000Y-88900000D03*
%TO.P,J70,26,Pin_26*%
X116840000Y-91440000D03*
%TD*%
D10*
%TO.P,J59,1,Pin_1*%
%TO.N,Net-(J59-Pin_1)*%
X101600000Y-73660000D03*
%TO.P,J59,2,Pin_2*%
X104140000Y-73660000D03*
%TO.P,J59,3,Pin_3*%
X106680000Y-73660000D03*
%TO.P,J59,4,Pin_4*%
X109220000Y-73660000D03*
%TO.P,J59,5,Pin_5*%
X111760000Y-73660000D03*
%TO.P,J59,6,Pin_6*%
X114300000Y-73660000D03*
%TD*%
%TO.P,J24,1,Pin_1*%
%TO.N,Net-(J24-Pin_1)*%
X81280000Y-66040000D03*
%TO.P,J24,2,Pin_2*%
X83820000Y-66040000D03*
%TO.P,J24,3,Pin_3*%
X86360000Y-66040000D03*
%TO.P,J24,4,Pin_4*%
X88900000Y-66040000D03*
%TO.P,J24,5,Pin_5*%
X91440000Y-66040000D03*
%TO.P,J24,6,Pin_6*%
X93980000Y-66040000D03*
%TD*%
D12*
%TO.P,J69,1,Pin_1*%
%TO.N,Net-(J69-Pin_1)*%
X119380000Y-27940000D03*
%TO.P,J69,2,Pin_2*%
X119380000Y-30480000D03*
%TO.P,J69,3,Pin_3*%
X119380000Y-33020000D03*
%TO.P,J69,4,Pin_4*%
X119380000Y-35560000D03*
%TO.P,J69,5,Pin_5*%
X119380000Y-38100000D03*
%TO.P,J69,6,Pin_6*%
X119380000Y-40640000D03*
%TO.P,J69,7,Pin_7*%
X119380000Y-43180000D03*
%TO.P,J69,8,Pin_8*%
X119380000Y-45720000D03*
%TO.P,J69,9,Pin_9*%
X119380000Y-48260000D03*
%TO.P,J69,10,Pin_10*%
X119380000Y-50800000D03*
%TO.P,J69,11,Pin_11*%
X119380000Y-53340000D03*
%TO.P,J69,12,Pin_12*%
X119380000Y-55880000D03*
%TO.P,J69,13,Pin_13*%
X119380000Y-58420000D03*
%TO.P,J69,14,Pin_14*%
X119380000Y-60960000D03*
%TO.P,J69,15,Pin_15*%
X119380000Y-63500000D03*
%TO.P,J69,16,Pin_16*%
X119380000Y-66040000D03*
%TO.P,J69,17,Pin_17*%
X119380000Y-68580000D03*
%TO.P,J69,18,Pin_18*%
X119380000Y-71120000D03*
%TO.P,J69,19,Pin_19*%
X119380000Y-73660000D03*
%TO.P,J69,20,Pin_20*%
X119380000Y-76200000D03*
%TO.P,J69,21,Pin_21*%
X119380000Y-78740000D03*
%TO.P,J69,22,Pin_22*%
X119380000Y-81280000D03*
%TO.P,J69,23,Pin_23*%
X119380000Y-83820000D03*
%TO.P,J69,24,Pin_24*%
X119380000Y-86360000D03*
%TO.P,J69,25,Pin_25*%
X119380000Y-88900000D03*
%TO.P,J69,26,Pin_26*%
X119380000Y-91440000D03*
%TD*%
D13*
%TO.P,JP4,1,A*%
%TO.N,GND*%
X100360000Y-99060000D03*
D14*
%TO.P,JP4,2,B*%
%TO.N,Net-(J38-Pin_1)*%
X99060000Y-99060000D03*
%TD*%
D10*
%TO.P,J44,1,Pin_1*%
%TO.N,Net-(J44-Pin_1)*%
X101600000Y-35560000D03*
%TO.P,J44,2,Pin_2*%
X104140000Y-35560000D03*
%TO.P,J44,3,Pin_3*%
X106680000Y-35560000D03*
%TO.P,J44,4,Pin_4*%
X109220000Y-35560000D03*
%TO.P,J44,5,Pin_5*%
X111760000Y-35560000D03*
%TO.P,J44,6,Pin_6*%
X114300000Y-35560000D03*
%TD*%
%TO.P,J35,1,Pin_1*%
%TO.N,Net-(J35-Pin_1)*%
X81280000Y-93980000D03*
%TO.P,J35,2,Pin_2*%
X83820000Y-93980000D03*
%TO.P,J35,3,Pin_3*%
X86360000Y-93980000D03*
%TO.P,J35,4,Pin_4*%
X88900000Y-93980000D03*
%TO.P,J35,5,Pin_5*%
X91440000Y-93980000D03*
%TO.P,J35,6,Pin_6*%
X93980000Y-93980000D03*
%TD*%
%TO.P,J17,1,Pin_1*%
%TO.N,Net-(J17-Pin_1)*%
X81280000Y-48260000D03*
%TO.P,J17,2,Pin_2*%
X83820000Y-48260000D03*
%TO.P,J17,3,Pin_3*%
X86360000Y-48260000D03*
%TO.P,J17,4,Pin_4*%
X88900000Y-48260000D03*
%TO.P,J17,5,Pin_5*%
X91440000Y-48260000D03*
%TO.P,J17,6,Pin_6*%
X93980000Y-48260000D03*
%TD*%
D12*
%TO.P,J5,1,Pin_1*%
%TO.N,Net-(J5-Pin_1)*%
X76200000Y-27940000D03*
%TO.P,J5,2,Pin_2*%
X76200000Y-30480000D03*
%TO.P,J5,3,Pin_3*%
X76200000Y-33020000D03*
%TO.P,J5,4,Pin_4*%
X76200000Y-35560000D03*
%TO.P,J5,5,Pin_5*%
X76200000Y-38100000D03*
%TO.P,J5,6,Pin_6*%
X76200000Y-40640000D03*
%TO.P,J5,7,Pin_7*%
X76200000Y-43180000D03*
%TO.P,J5,8,Pin_8*%
X76200000Y-45720000D03*
%TO.P,J5,9,Pin_9*%
X76200000Y-48260000D03*
%TD*%
D10*
%TO.P,J30,1,Pin_1*%
%TO.N,Net-(J30-Pin_1)*%
X81280000Y-81280000D03*
%TO.P,J30,2,Pin_2*%
X83820000Y-81280000D03*
%TO.P,J30,3,Pin_3*%
X86360000Y-81280000D03*
%TO.P,J30,4,Pin_4*%
X88900000Y-81280000D03*
%TO.P,J30,5,Pin_5*%
X91440000Y-81280000D03*
%TO.P,J30,6,Pin_6*%
X93980000Y-81280000D03*
%TD*%
D15*
%TO.P,H4,1,1*%
%TO.N,GND*%
X119380000Y-96520000D03*
%TD*%
D10*
%TO.P,J66,1,Pin_1*%
%TO.N,Net-(J66-Pin_1)*%
X101600000Y-91440000D03*
%TO.P,J66,2,Pin_2*%
X104140000Y-91440000D03*
%TO.P,J66,3,Pin_3*%
X106680000Y-91440000D03*
%TO.P,J66,4,Pin_4*%
X109220000Y-91440000D03*
%TO.P,J66,5,Pin_5*%
X111760000Y-91440000D03*
%TO.P,J66,6,Pin_6*%
X114300000Y-91440000D03*
%TD*%
%TO.P,J42,1,Pin_1*%
%TO.N,Net-(J42-Pin_1)*%
X101600000Y-30480000D03*
%TO.P,J42,2,Pin_2*%
X104140000Y-30480000D03*
%TO.P,J42,3,Pin_3*%
X106680000Y-30480000D03*
%TO.P,J42,4,Pin_4*%
X109220000Y-30480000D03*
%TO.P,J42,5,Pin_5*%
X111760000Y-30480000D03*
%TO.P,J42,6,Pin_6*%
X114300000Y-30480000D03*
%TD*%
%TO.P,J55,1,Pin_1*%
%TO.N,Net-(J55-Pin_1)*%
X101600000Y-63500000D03*
%TO.P,J55,2,Pin_2*%
X104140000Y-63500000D03*
%TO.P,J55,3,Pin_3*%
X106680000Y-63500000D03*
%TO.P,J55,4,Pin_4*%
X109220000Y-63500000D03*
%TO.P,J55,5,Pin_5*%
X111760000Y-63500000D03*
%TO.P,J55,6,Pin_6*%
X114300000Y-63500000D03*
%TD*%
%TO.P,J13,1,Pin_1*%
%TO.N,Net-(J13-Pin_1)*%
X81280000Y-38100000D03*
%TO.P,J13,2,Pin_2*%
X83820000Y-38100000D03*
%TO.P,J13,3,Pin_3*%
X86360000Y-38100000D03*
%TO.P,J13,4,Pin_4*%
X88900000Y-38100000D03*
%TO.P,J13,5,Pin_5*%
X91440000Y-38100000D03*
%TO.P,J13,6,Pin_6*%
X93980000Y-38100000D03*
%TD*%
%TO.P,J36,1,Pin_1*%
%TO.N,Net-(J36-Pin_1)*%
X81280000Y-96520000D03*
%TO.P,J36,2,Pin_2*%
X83820000Y-96520000D03*
%TO.P,J36,3,Pin_3*%
X86360000Y-96520000D03*
%TO.P,J36,4,Pin_4*%
X88900000Y-96520000D03*
%TO.P,J36,5,Pin_5*%
X91440000Y-96520000D03*
%TO.P,J36,6,Pin_6*%
X93980000Y-96520000D03*
%TD*%
%TO.P,J39,1,Pin_1*%
%TO.N,Net-(J39-Pin_1)*%
X101600000Y-22860000D03*
%TO.P,J39,2,Pin_2*%
X104140000Y-22860000D03*
%TO.P,J39,3,Pin_3*%
X106680000Y-22860000D03*
%TO.P,J39,4,Pin_4*%
X109220000Y-22860000D03*
%TO.P,J39,5,Pin_5*%
X111760000Y-22860000D03*
%TO.P,J39,6,Pin_6*%
X114300000Y-22860000D03*
%TD*%
D16*
%TO.P,J1,1,1*%
%TO.N,GND*%
X77438000Y-53110000D03*
%TO.P,J1,2,2*%
%TO.N,/VDD*%
X77438000Y-54110000D03*
%TO.P,J1,3,3*%
%TO.N,/SCA*%
X77438000Y-55110000D03*
%TO.P,J1,4,4*%
%TO.N,/SCL*%
X77438000Y-56110000D03*
D17*
%TO.P,J1,S1,SHIELD*%
%TO.N,GND*%
X73563000Y-51810000D03*
%TO.P,J1,S2,SHIELD*%
X73563000Y-57410000D03*
%TD*%
D10*
%TO.P,J45,1,Pin_1*%
%TO.N,Net-(J45-Pin_1)*%
X101600000Y-38100000D03*
%TO.P,J45,2,Pin_2*%
X104140000Y-38100000D03*
%TO.P,J45,3,Pin_3*%
X106680000Y-38100000D03*
%TO.P,J45,4,Pin_4*%
X109220000Y-38100000D03*
%TO.P,J45,5,Pin_5*%
X111760000Y-38100000D03*
%TO.P,J45,6,Pin_6*%
X114300000Y-38100000D03*
%TD*%
D12*
%TO.P,J3,1,Pin_1*%
%TO.N,Net-(J3-Pin_1)*%
X78740000Y-27940000D03*
%TO.P,J3,2,Pin_2*%
X78740000Y-30480000D03*
%TO.P,J3,3,Pin_3*%
X78740000Y-33020000D03*
%TO.P,J3,4,Pin_4*%
X78740000Y-35560000D03*
%TO.P,J3,5,Pin_5*%
X78740000Y-38100000D03*
%TO.P,J3,6,Pin_6*%
X78740000Y-40640000D03*
%TO.P,J3,7,Pin_7*%
X78740000Y-43180000D03*
%TO.P,J3,8,Pin_8*%
X78740000Y-45720000D03*
%TO.P,J3,9,Pin_9*%
X78740000Y-48260000D03*
%TD*%
D10*
%TO.P,J61,1,Pin_1*%
%TO.N,Net-(J61-Pin_1)*%
X101600000Y-78740000D03*
%TO.P,J61,2,Pin_2*%
X104140000Y-78740000D03*
%TO.P,J61,3,Pin_3*%
X106680000Y-78740000D03*
%TO.P,J61,4,Pin_4*%
X109220000Y-78740000D03*
%TO.P,J61,5,Pin_5*%
X111760000Y-78740000D03*
%TO.P,J61,6,Pin_6*%
X114300000Y-78740000D03*
%TD*%
D15*
%TO.P,H2,1,1*%
%TO.N,GND*%
X119380000Y-22860000D03*
%TD*%
D18*
%TO.P,JP6,1,A*%
%TO.N,GND*%
X114270000Y-99060000D03*
D19*
%TO.P,JP6,2,B*%
%TO.N,Net-(J70-Pin_1)*%
X115570000Y-99060000D03*
%TD*%
D10*
%TO.P,J53,1,Pin_1*%
%TO.N,Net-(J53-Pin_1)*%
X101600000Y-58420000D03*
%TO.P,J53,2,Pin_2*%
X104140000Y-58420000D03*
%TO.P,J53,3,Pin_3*%
X106680000Y-58420000D03*
%TO.P,J53,4,Pin_4*%
X109220000Y-58420000D03*
%TO.P,J53,5,Pin_5*%
X111760000Y-58420000D03*
%TO.P,J53,6,Pin_6*%
X114300000Y-58420000D03*
%TD*%
%TO.P,J8,1,Pin_1*%
%TO.N,Net-(J8-Pin_1)*%
X81280000Y-25400000D03*
%TO.P,J8,2,Pin_2*%
X83820000Y-25400000D03*
%TO.P,J8,3,Pin_3*%
X86360000Y-25400000D03*
%TO.P,J8,4,Pin_4*%
X88900000Y-25400000D03*
%TO.P,J8,5,Pin_5*%
X91440000Y-25400000D03*
%TO.P,J8,6,Pin_6*%
X93980000Y-25400000D03*
%TD*%
D18*
%TO.P,JP3,1,A*%
%TO.N,GND*%
X95220000Y-99060000D03*
D19*
%TO.P,JP3,2,B*%
%TO.N,Net-(J37-Pin_1)*%
X96520000Y-99060000D03*
%TD*%
D10*
%TO.P,J56,1,Pin_1*%
%TO.N,Net-(J56-Pin_1)*%
X101600000Y-66040000D03*
%TO.P,J56,2,Pin_2*%
X104140000Y-66040000D03*
%TO.P,J56,3,Pin_3*%
X106680000Y-66040000D03*
%TO.P,J56,4,Pin_4*%
X109220000Y-66040000D03*
%TO.P,J56,5,Pin_5*%
X111760000Y-66040000D03*
%TO.P,J56,6,Pin_6*%
X114300000Y-66040000D03*
%TD*%
D11*
%TO.P,J38,1,Pin_1*%
%TO.N,Net-(J38-Pin_1)*%
X99060000Y-96520000D03*
%TO.P,J38,2,Pin_2*%
X99060000Y-93980000D03*
%TO.P,J38,3,Pin_3*%
X99060000Y-91440000D03*
%TO.P,J38,4,Pin_4*%
X99060000Y-88900000D03*
%TO.P,J38,5,Pin_5*%
X99060000Y-86360000D03*
%TO.P,J38,6,Pin_6*%
X99060000Y-83820000D03*
%TO.P,J38,7,Pin_7*%
X99060000Y-81280000D03*
%TO.P,J38,8,Pin_8*%
X99060000Y-78740000D03*
%TO.P,J38,9,Pin_9*%
X99060000Y-76200000D03*
%TO.P,J38,10,Pin_10*%
X99060000Y-73660000D03*
%TO.P,J38,11,Pin_11*%
X99060000Y-71120000D03*
%TO.P,J38,12,Pin_12*%
X99060000Y-68580000D03*
%TO.P,J38,13,Pin_13*%
X99060000Y-66040000D03*
%TO.P,J38,14,Pin_14*%
X99060000Y-63500000D03*
%TO.P,J38,15,Pin_15*%
X99060000Y-60960000D03*
%TO.P,J38,16,Pin_16*%
X99060000Y-58420000D03*
%TO.P,J38,17,Pin_17*%
X99060000Y-55880000D03*
%TO.P,J38,18,Pin_18*%
X99060000Y-53340000D03*
%TO.P,J38,19,Pin_19*%
X99060000Y-50800000D03*
%TO.P,J38,20,Pin_20*%
X99060000Y-48260000D03*
%TO.P,J38,21,Pin_21*%
X99060000Y-45720000D03*
%TO.P,J38,22,Pin_22*%
X99060000Y-43180000D03*
%TO.P,J38,23,Pin_23*%
X99060000Y-40640000D03*
%TO.P,J38,24,Pin_24*%
X99060000Y-38100000D03*
%TO.P,J38,25,Pin_25*%
X99060000Y-35560000D03*
%TO.P,J38,26,Pin_26*%
X99060000Y-33020000D03*
%TO.P,J38,27,Pin_27*%
X99060000Y-30480000D03*
%TO.P,J38,28,Pin_28*%
X99060000Y-27940000D03*
%TO.P,J38,29,Pin_29*%
X99060000Y-25400000D03*
%TO.P,J38,30,Pin_30*%
X99060000Y-22860000D03*
%TD*%
D10*
%TO.P,J12,1,Pin_1*%
%TO.N,Net-(J12-Pin_1)*%
X81280000Y-35560000D03*
%TO.P,J12,2,Pin_2*%
X83820000Y-35560000D03*
%TO.P,J12,3,Pin_3*%
X86360000Y-35560000D03*
%TO.P,J12,4,Pin_4*%
X88900000Y-35560000D03*
%TO.P,J12,5,Pin_5*%
X91440000Y-35560000D03*
%TO.P,J12,6,Pin_6*%
X93980000Y-35560000D03*
%TD*%
%TO.P,J15,1,Pin_1*%
%TO.N,Net-(J15-Pin_1)*%
X81280000Y-43180000D03*
%TO.P,J15,2,Pin_2*%
X83820000Y-43180000D03*
%TO.P,J15,3,Pin_3*%
X86360000Y-43180000D03*
%TO.P,J15,4,Pin_4*%
X88900000Y-43180000D03*
%TO.P,J15,5,Pin_5*%
X91440000Y-43180000D03*
%TO.P,J15,6,Pin_6*%
X93980000Y-43180000D03*
%TD*%
%TO.P,J67,1,Pin_1*%
%TO.N,Net-(J67-Pin_1)*%
X101600000Y-93980000D03*
%TO.P,J67,2,Pin_2*%
X104140000Y-93980000D03*
%TO.P,J67,3,Pin_3*%
X106680000Y-93980000D03*
%TO.P,J67,4,Pin_4*%
X109220000Y-93980000D03*
%TO.P,J67,5,Pin_5*%
X111760000Y-93980000D03*
%TO.P,J67,6,Pin_6*%
X114300000Y-93980000D03*
%TD*%
%TO.P,J28,1,Pin_1*%
%TO.N,Net-(J28-Pin_1)*%
X81280000Y-76200000D03*
%TO.P,J28,2,Pin_2*%
X83820000Y-76200000D03*
%TO.P,J28,3,Pin_3*%
X86360000Y-76200000D03*
%TO.P,J28,4,Pin_4*%
X88900000Y-76200000D03*
%TO.P,J28,5,Pin_5*%
X91440000Y-76200000D03*
%TO.P,J28,6,Pin_6*%
X93980000Y-76200000D03*
%TD*%
%TO.P,J25,1,Pin_1*%
%TO.N,Net-(J25-Pin_1)*%
X81280000Y-68580000D03*
%TO.P,J25,2,Pin_2*%
X83820000Y-68580000D03*
%TO.P,J25,3,Pin_3*%
X86360000Y-68580000D03*
%TO.P,J25,4,Pin_4*%
X88900000Y-68580000D03*
%TO.P,J25,5,Pin_5*%
X91440000Y-68580000D03*
%TO.P,J25,6,Pin_6*%
X93980000Y-68580000D03*
%TD*%
%TO.P,J41,1,Pin_1*%
%TO.N,Net-(J41-Pin_1)*%
X101600000Y-27940000D03*
%TO.P,J41,2,Pin_2*%
X104140000Y-27940000D03*
%TO.P,J41,3,Pin_3*%
X106680000Y-27940000D03*
%TO.P,J41,4,Pin_4*%
X109220000Y-27940000D03*
%TO.P,J41,5,Pin_5*%
X111760000Y-27940000D03*
%TO.P,J41,6,Pin_6*%
X114300000Y-27940000D03*
%TD*%
%TO.P,J43,1,Pin_1*%
%TO.N,Net-(J43-Pin_1)*%
X101600000Y-33020000D03*
%TO.P,J43,2,Pin_2*%
X104140000Y-33020000D03*
%TO.P,J43,3,Pin_3*%
X106680000Y-33020000D03*
%TO.P,J43,4,Pin_4*%
X109220000Y-33020000D03*
%TO.P,J43,5,Pin_5*%
X111760000Y-33020000D03*
%TO.P,J43,6,Pin_6*%
X114300000Y-33020000D03*
%TD*%
%TO.P,J47,1,Pin_1*%
%TO.N,Net-(J47-Pin_1)*%
X101600000Y-43180000D03*
%TO.P,J47,2,Pin_2*%
X104140000Y-43180000D03*
%TO.P,J47,3,Pin_3*%
X106680000Y-43180000D03*
%TO.P,J47,4,Pin_4*%
X109220000Y-43180000D03*
%TO.P,J47,5,Pin_5*%
X111760000Y-43180000D03*
%TO.P,J47,6,Pin_6*%
X114300000Y-43180000D03*
%TD*%
%TO.P,J46,1,Pin_1*%
%TO.N,Net-(J46-Pin_1)*%
X101600000Y-40640000D03*
%TO.P,J46,2,Pin_2*%
X104140000Y-40640000D03*
%TO.P,J46,3,Pin_3*%
X106680000Y-40640000D03*
%TO.P,J46,4,Pin_4*%
X109220000Y-40640000D03*
%TO.P,J46,5,Pin_5*%
X111760000Y-40640000D03*
%TO.P,J46,6,Pin_6*%
X114300000Y-40640000D03*
%TD*%
%TO.P,J11,1,Pin_1*%
%TO.N,Net-(J11-Pin_1)*%
X81280000Y-33020000D03*
%TO.P,J11,2,Pin_2*%
X83820000Y-33020000D03*
%TO.P,J11,3,Pin_3*%
X86360000Y-33020000D03*
%TO.P,J11,4,Pin_4*%
X88900000Y-33020000D03*
%TO.P,J11,5,Pin_5*%
X91440000Y-33020000D03*
%TO.P,J11,6,Pin_6*%
X93980000Y-33020000D03*
%TD*%
%TO.P,J49,1,Pin_1*%
%TO.N,Net-(J49-Pin_1)*%
X101600000Y-48260000D03*
%TO.P,J49,2,Pin_2*%
X104140000Y-48260000D03*
%TO.P,J49,3,Pin_3*%
X106680000Y-48260000D03*
%TO.P,J49,4,Pin_4*%
X109220000Y-48260000D03*
%TO.P,J49,5,Pin_5*%
X111760000Y-48260000D03*
%TO.P,J49,6,Pin_6*%
X114300000Y-48260000D03*
%TD*%
%TO.P,J57,1,Pin_1*%
%TO.N,Net-(J57-Pin_1)*%
X101600000Y-68580000D03*
%TO.P,J57,2,Pin_2*%
X104140000Y-68580000D03*
%TO.P,J57,3,Pin_3*%
X106680000Y-68580000D03*
%TO.P,J57,4,Pin_4*%
X109220000Y-68580000D03*
%TO.P,J57,5,Pin_5*%
X111760000Y-68580000D03*
%TO.P,J57,6,Pin_6*%
X114300000Y-68580000D03*
%TD*%
D20*
%TO.P,JP5,1,A*%
%TO.N,GND*%
X121920000Y-92710000D03*
D21*
%TO.P,JP5,2,B*%
%TO.N,Net-(J69-Pin_1)*%
X121920000Y-91410000D03*
%TD*%
D10*
%TO.P,J22,1,Pin_1*%
%TO.N,Net-(J22-Pin_1)*%
X81280000Y-60960000D03*
%TO.P,J22,2,Pin_2*%
X83820000Y-60960000D03*
%TO.P,J22,3,Pin_3*%
X86360000Y-60960000D03*
%TO.P,J22,4,Pin_4*%
X88900000Y-60960000D03*
%TO.P,J22,5,Pin_5*%
X91440000Y-60960000D03*
%TO.P,J22,6,Pin_6*%
X93980000Y-60960000D03*
%TD*%
%TO.P,J31,1,Pin_1*%
%TO.N,Net-(J31-Pin_1)*%
X81280000Y-83820000D03*
%TO.P,J31,2,Pin_2*%
X83820000Y-83820000D03*
%TO.P,J31,3,Pin_3*%
X86360000Y-83820000D03*
%TO.P,J31,4,Pin_4*%
X88900000Y-83820000D03*
%TO.P,J31,5,Pin_5*%
X91440000Y-83820000D03*
%TO.P,J31,6,Pin_6*%
X93980000Y-83820000D03*
%TD*%
%TO.P,J54,1,Pin_1*%
%TO.N,Net-(J54-Pin_1)*%
X101600000Y-60960000D03*
%TO.P,J54,2,Pin_2*%
X104140000Y-60960000D03*
%TO.P,J54,3,Pin_3*%
X106680000Y-60960000D03*
%TO.P,J54,4,Pin_4*%
X109220000Y-60960000D03*
%TO.P,J54,5,Pin_5*%
X111760000Y-60960000D03*
%TO.P,J54,6,Pin_6*%
X114300000Y-60960000D03*
%TD*%
D12*
%TO.P,J2,1,Pin_1*%
%TO.N,GND*%
X81280000Y-50800000D03*
%TO.P,J2,2,Pin_2*%
%TO.N,/VDD*%
X81280000Y-53340000D03*
%TO.P,J2,3,Pin_3*%
%TO.N,/SCA*%
X81280000Y-55880000D03*
%TO.P,J2,4,Pin_4*%
%TO.N,/SCL*%
X81280000Y-58420000D03*
%TD*%
D10*
%TO.P,J64,1,Pin_1*%
%TO.N,Net-(J64-Pin_1)*%
X101600000Y-86360000D03*
%TO.P,J64,2,Pin_2*%
X104140000Y-86360000D03*
%TO.P,J64,3,Pin_3*%
X106680000Y-86360000D03*
%TO.P,J64,4,Pin_4*%
X109220000Y-86360000D03*
%TO.P,J64,5,Pin_5*%
X111760000Y-86360000D03*
%TO.P,J64,6,Pin_6*%
X114300000Y-86360000D03*
%TD*%
%TO.P,J29,1,Pin_1*%
%TO.N,Net-(J29-Pin_1)*%
X81280000Y-78740000D03*
%TO.P,J29,2,Pin_2*%
X83820000Y-78740000D03*
%TO.P,J29,3,Pin_3*%
X86360000Y-78740000D03*
%TO.P,J29,4,Pin_4*%
X88900000Y-78740000D03*
%TO.P,J29,5,Pin_5*%
X91440000Y-78740000D03*
%TO.P,J29,6,Pin_6*%
X93980000Y-78740000D03*
%TD*%
D15*
%TO.P,H1,1,1*%
%TO.N,GND*%
X76200000Y-22860000D03*
%TD*%
D10*
%TO.P,J14,1,Pin_1*%
%TO.N,Net-(J14-Pin_1)*%
X81280000Y-40640000D03*
%TO.P,J14,2,Pin_2*%
X83820000Y-40640000D03*
%TO.P,J14,3,Pin_3*%
X86360000Y-40640000D03*
%TO.P,J14,4,Pin_4*%
X88900000Y-40640000D03*
%TO.P,J14,5,Pin_5*%
X91440000Y-40640000D03*
%TO.P,J14,6,Pin_6*%
X93980000Y-40640000D03*
%TD*%
%TO.P,J68,1,Pin_1*%
%TO.N,Net-(J68-Pin_1)*%
X101600000Y-96520000D03*
%TO.P,J68,2,Pin_2*%
X104140000Y-96520000D03*
%TO.P,J68,3,Pin_3*%
X106680000Y-96520000D03*
%TO.P,J68,4,Pin_4*%
X109220000Y-96520000D03*
%TO.P,J68,5,Pin_5*%
X111760000Y-96520000D03*
%TO.P,J68,6,Pin_6*%
X114300000Y-96520000D03*
%TD*%
%TO.P,J18,1,Pin_1*%
%TO.N,Net-(J18-Pin_1)*%
X83820000Y-50800000D03*
%TO.P,J18,2,Pin_2*%
X86360000Y-50800000D03*
%TO.P,J18,3,Pin_3*%
X88900000Y-50800000D03*
%TO.P,J18,4,Pin_4*%
X91440000Y-50800000D03*
%TO.P,J18,5,Pin_5*%
X93980000Y-50800000D03*
%TD*%
D15*
%TO.P,H3,1,1*%
%TO.N,GND*%
X76200000Y-96520000D03*
%TD*%
D10*
%TO.P,J34,1,Pin_1*%
%TO.N,Net-(J34-Pin_1)*%
X81280000Y-91440000D03*
%TO.P,J34,2,Pin_2*%
X83820000Y-91440000D03*
%TO.P,J34,3,Pin_3*%
X86360000Y-91440000D03*
%TO.P,J34,4,Pin_4*%
X88900000Y-91440000D03*
%TO.P,J34,5,Pin_5*%
X91440000Y-91440000D03*
%TO.P,J34,6,Pin_6*%
X93980000Y-91440000D03*
%TD*%
%TO.P,J26,1,Pin_1*%
%TO.N,Net-(J26-Pin_1)*%
X81280000Y-71120000D03*
%TO.P,J26,2,Pin_2*%
X83820000Y-71120000D03*
%TO.P,J26,3,Pin_3*%
X86360000Y-71120000D03*
%TO.P,J26,4,Pin_4*%
X88900000Y-71120000D03*
%TO.P,J26,5,Pin_5*%
X91440000Y-71120000D03*
%TO.P,J26,6,Pin_6*%
X93980000Y-71120000D03*
%TD*%
%TO.P,J33,1,Pin_1*%
%TO.N,Net-(J33-Pin_1)*%
X81280000Y-88900000D03*
%TO.P,J33,2,Pin_2*%
X83820000Y-88900000D03*
%TO.P,J33,3,Pin_3*%
X86360000Y-88900000D03*
%TO.P,J33,4,Pin_4*%
X88900000Y-88900000D03*
%TO.P,J33,5,Pin_5*%
X91440000Y-88900000D03*
%TO.P,J33,6,Pin_6*%
X93980000Y-88900000D03*
%TD*%
%TO.P,J27,1,Pin_1*%
%TO.N,Net-(J27-Pin_1)*%
X81280000Y-73660000D03*
%TO.P,J27,2,Pin_2*%
X83820000Y-73660000D03*
%TO.P,J27,3,Pin_3*%
X86360000Y-73660000D03*
%TO.P,J27,4,Pin_4*%
X88900000Y-73660000D03*
%TO.P,J27,5,Pin_5*%
X91440000Y-73660000D03*
%TO.P,J27,6,Pin_6*%
X93980000Y-73660000D03*
%TD*%
%TO.P,J16,1,Pin_1*%
%TO.N,Net-(J16-Pin_1)*%
X81280000Y-45720000D03*
%TO.P,J16,2,Pin_2*%
X83820000Y-45720000D03*
%TO.P,J16,3,Pin_3*%
X86360000Y-45720000D03*
%TO.P,J16,4,Pin_4*%
X88900000Y-45720000D03*
%TO.P,J16,5,Pin_5*%
X91440000Y-45720000D03*
%TO.P,J16,6,Pin_6*%
X93980000Y-45720000D03*
%TD*%
%TO.P,J20,1,Pin_1*%
%TO.N,Net-(J20-Pin_1)*%
X83820000Y-55880000D03*
%TO.P,J20,2,Pin_2*%
X86360000Y-55880000D03*
%TO.P,J20,3,Pin_3*%
X88900000Y-55880000D03*
%TO.P,J20,4,Pin_4*%
X91440000Y-55880000D03*
%TO.P,J20,5,Pin_5*%
X93980000Y-55880000D03*
%TD*%
%TO.P,J48,1,Pin_1*%
%TO.N,Net-(J48-Pin_1)*%
X101600000Y-45720000D03*
%TO.P,J48,2,Pin_2*%
X104140000Y-45720000D03*
%TO.P,J48,3,Pin_3*%
X106680000Y-45720000D03*
%TO.P,J48,4,Pin_4*%
X109220000Y-45720000D03*
%TO.P,J48,5,Pin_5*%
X111760000Y-45720000D03*
%TO.P,J48,6,Pin_6*%
X114300000Y-45720000D03*
%TD*%
%TO.P,J63,1,Pin_1*%
%TO.N,Net-(J63-Pin_1)*%
X101600000Y-83820000D03*
%TO.P,J63,2,Pin_2*%
X104140000Y-83820000D03*
%TO.P,J63,3,Pin_3*%
X106680000Y-83820000D03*
%TO.P,J63,4,Pin_4*%
X109220000Y-83820000D03*
%TO.P,J63,5,Pin_5*%
X111760000Y-83820000D03*
%TO.P,J63,6,Pin_6*%
X114300000Y-83820000D03*
%TD*%
%TO.P,J62,1,Pin_1*%
%TO.N,Net-(J62-Pin_1)*%
X101600000Y-81280000D03*
%TO.P,J62,2,Pin_2*%
X104140000Y-81280000D03*
%TO.P,J62,3,Pin_3*%
X106680000Y-81280000D03*
%TO.P,J62,4,Pin_4*%
X109220000Y-81280000D03*
%TO.P,J62,5,Pin_5*%
X111760000Y-81280000D03*
%TO.P,J62,6,Pin_6*%
X114300000Y-81280000D03*
%TD*%
%TO.P,J58,1,Pin_1*%
%TO.N,Net-(J58-Pin_1)*%
X101600000Y-71120000D03*
%TO.P,J58,2,Pin_2*%
X104140000Y-71120000D03*
%TO.P,J58,3,Pin_3*%
X106680000Y-71120000D03*
%TO.P,J58,4,Pin_4*%
X109220000Y-71120000D03*
%TO.P,J58,5,Pin_5*%
X111760000Y-71120000D03*
%TO.P,J58,6,Pin_6*%
X114300000Y-71120000D03*
%TD*%
D13*
%TO.P,JP1,1,A*%
%TO.N,GND*%
X81310000Y-99060000D03*
D14*
%TO.P,JP1,2,B*%
%TO.N,Net-(J3-Pin_1)*%
X80010000Y-99060000D03*
%TD*%
D10*
%TO.P,J32,1,Pin_1*%
%TO.N,Net-(J32-Pin_1)*%
X81280000Y-86360000D03*
%TO.P,J32,2,Pin_2*%
X83820000Y-86360000D03*
%TO.P,J32,3,Pin_3*%
X86360000Y-86360000D03*
%TO.P,J32,4,Pin_4*%
X88900000Y-86360000D03*
%TO.P,J32,5,Pin_5*%
X91440000Y-86360000D03*
%TO.P,J32,6,Pin_6*%
X93980000Y-86360000D03*
%TD*%
%TO.P,J10,1,Pin_1*%
%TO.N,Net-(J10-Pin_1)*%
X81280000Y-30480000D03*
%TO.P,J10,2,Pin_2*%
X83820000Y-30480000D03*
%TO.P,J10,3,Pin_3*%
X86360000Y-30480000D03*
%TO.P,J10,4,Pin_4*%
X88900000Y-30480000D03*
%TO.P,J10,5,Pin_5*%
X91440000Y-30480000D03*
%TO.P,J10,6,Pin_6*%
X93980000Y-30480000D03*
%TD*%
D12*
%TO.P,J4,1,Pin_1*%
%TO.N,Net-(J3-Pin_1)*%
X78740000Y-60960000D03*
%TO.P,J4,2,Pin_2*%
X78740000Y-63500000D03*
%TO.P,J4,3,Pin_3*%
X78740000Y-66040000D03*
%TO.P,J4,4,Pin_4*%
X78740000Y-68580000D03*
%TO.P,J4,5,Pin_5*%
X78740000Y-71120000D03*
%TO.P,J4,6,Pin_6*%
X78740000Y-73660000D03*
%TO.P,J4,7,Pin_7*%
X78740000Y-76200000D03*
%TO.P,J4,8,Pin_8*%
X78740000Y-78740000D03*
%TO.P,J4,9,Pin_9*%
X78740000Y-81280000D03*
%TO.P,J4,10,Pin_10*%
X78740000Y-83820000D03*
%TO.P,J4,11,Pin_11*%
X78740000Y-86360000D03*
%TO.P,J4,12,Pin_12*%
X78740000Y-88900000D03*
%TO.P,J4,13,Pin_13*%
X78740000Y-91440000D03*
%TD*%
D10*
%TO.P,J51,1,Pin_1*%
%TO.N,Net-(J51-Pin_1)*%
X101600000Y-53340000D03*
%TO.P,J51,2,Pin_2*%
X104140000Y-53340000D03*
%TO.P,J51,3,Pin_3*%
X106680000Y-53340000D03*
%TO.P,J51,4,Pin_4*%
X109220000Y-53340000D03*
%TO.P,J51,5,Pin_5*%
X111760000Y-53340000D03*
%TO.P,J51,6,Pin_6*%
X114300000Y-53340000D03*
%TD*%
%TO.P,J7,1,Pin_1*%
%TO.N,Net-(J7-Pin_1)*%
X81280000Y-22860000D03*
%TO.P,J7,2,Pin_2*%
X83820000Y-22860000D03*
%TO.P,J7,3,Pin_3*%
X86360000Y-22860000D03*
%TO.P,J7,4,Pin_4*%
X88900000Y-22860000D03*
%TO.P,J7,5,Pin_5*%
X91440000Y-22860000D03*
%TO.P,J7,6,Pin_6*%
X93980000Y-22860000D03*
%TD*%
%TO.P,J40,1,Pin_1*%
%TO.N,Net-(J40-Pin_1)*%
X101600000Y-25400000D03*
%TO.P,J40,2,Pin_2*%
X104140000Y-25400000D03*
%TO.P,J40,3,Pin_3*%
X106680000Y-25400000D03*
%TO.P,J40,4,Pin_4*%
X109220000Y-25400000D03*
%TO.P,J40,5,Pin_5*%
X111760000Y-25400000D03*
%TO.P,J40,6,Pin_6*%
X114300000Y-25400000D03*
%TD*%
%TO.P,J21,1,Pin_1*%
%TO.N,Net-(J21-Pin_1)*%
X83820000Y-58420000D03*
%TO.P,J21,2,Pin_2*%
X86360000Y-58420000D03*
%TO.P,J21,3,Pin_3*%
X88900000Y-58420000D03*
%TO.P,J21,4,Pin_4*%
X91440000Y-58420000D03*
%TO.P,J21,5,Pin_5*%
X93980000Y-58420000D03*
%TD*%
%TO.P,J23,1,Pin_1*%
%TO.N,Net-(J23-Pin_1)*%
X81280000Y-63500000D03*
%TO.P,J23,2,Pin_2*%
X83820000Y-63500000D03*
%TO.P,J23,3,Pin_3*%
X86360000Y-63500000D03*
%TO.P,J23,4,Pin_4*%
X88900000Y-63500000D03*
%TO.P,J23,5,Pin_5*%
X91440000Y-63500000D03*
%TO.P,J23,6,Pin_6*%
X93980000Y-63500000D03*
%TD*%
%TO.P,J52,1,Pin_1*%
%TO.N,Net-(J52-Pin_1)*%
X101600000Y-55880000D03*
%TO.P,J52,2,Pin_2*%
X104140000Y-55880000D03*
%TO.P,J52,3,Pin_3*%
X106680000Y-55880000D03*
%TO.P,J52,4,Pin_4*%
X109220000Y-55880000D03*
%TO.P,J52,5,Pin_5*%
X111760000Y-55880000D03*
%TO.P,J52,6,Pin_6*%
X114300000Y-55880000D03*
%TD*%
%TO.P,J50,1,Pin_1*%
%TO.N,Net-(J50-Pin_1)*%
X101600000Y-50800000D03*
%TO.P,J50,2,Pin_2*%
X104140000Y-50800000D03*
%TO.P,J50,3,Pin_3*%
X106680000Y-50800000D03*
%TO.P,J50,4,Pin_4*%
X109220000Y-50800000D03*
%TO.P,J50,5,Pin_5*%
X111760000Y-50800000D03*
%TO.P,J50,6,Pin_6*%
X114300000Y-50800000D03*
%TD*%
%TO.P,J65,1,Pin_1*%
%TO.N,Net-(J65-Pin_1)*%
X101600000Y-88900000D03*
%TO.P,J65,2,Pin_2*%
X104140000Y-88900000D03*
%TO.P,J65,3,Pin_3*%
X106680000Y-88900000D03*
%TO.P,J65,4,Pin_4*%
X109220000Y-88900000D03*
%TO.P,J65,5,Pin_5*%
X111760000Y-88900000D03*
%TO.P,J65,6,Pin_6*%
X114300000Y-88900000D03*
%TD*%
D12*
%TO.P,J6,1,Pin_1*%
%TO.N,Net-(J5-Pin_1)*%
X76200000Y-60960000D03*
%TO.P,J6,2,Pin_2*%
X76200000Y-63500000D03*
%TO.P,J6,3,Pin_3*%
X76200000Y-66040000D03*
%TO.P,J6,4,Pin_4*%
X76200000Y-68580000D03*
%TO.P,J6,5,Pin_5*%
X76200000Y-71120000D03*
%TO.P,J6,6,Pin_6*%
X76200000Y-73660000D03*
%TO.P,J6,7,Pin_7*%
X76200000Y-76200000D03*
%TO.P,J6,8,Pin_8*%
X76200000Y-78740000D03*
%TO.P,J6,9,Pin_9*%
X76200000Y-81280000D03*
%TO.P,J6,10,Pin_10*%
X76200000Y-83820000D03*
%TO.P,J6,11,Pin_11*%
X76200000Y-86360000D03*
%TO.P,J6,12,Pin_12*%
X76200000Y-88900000D03*
%TO.P,J6,13,Pin_13*%
X76200000Y-91440000D03*
%TD*%
D10*
%TO.P,J19,1,Pin_1*%
%TO.N,Net-(J19-Pin_1)*%
X83820000Y-53340000D03*
%TO.P,J19,2,Pin_2*%
X86360000Y-53340000D03*
%TO.P,J19,3,Pin_3*%
X88900000Y-53340000D03*
%TO.P,J19,4,Pin_4*%
X91440000Y-53340000D03*
%TO.P,J19,5,Pin_5*%
X93980000Y-53340000D03*
%TD*%
%TO.P,J60,1,Pin_1*%
%TO.N,Net-(J60-Pin_1)*%
X101600000Y-76200000D03*
%TO.P,J60,2,Pin_2*%
X104140000Y-76200000D03*
%TO.P,J60,3,Pin_3*%
X106680000Y-76200000D03*
%TO.P,J60,4,Pin_4*%
X109220000Y-76200000D03*
%TO.P,J60,5,Pin_5*%
X111760000Y-76200000D03*
%TO.P,J60,6,Pin_6*%
X114300000Y-76200000D03*
%TD*%
D20*
%TO.P,JP2,1,A*%
%TO.N,GND*%
X73660000Y-92710000D03*
D21*
%TO.P,JP2,2,B*%
%TO.N,Net-(J5-Pin_1)*%
X73660000Y-91410000D03*
%TD*%
D22*
%TO.N,GND*%
X73660000Y-55880000D03*
X73660000Y-93980000D03*
X113030000Y-99060000D03*
X73660000Y-53340000D03*
X82550000Y-99060000D03*
X121920000Y-93980000D03*
X101600000Y-99060000D03*
X79756000Y-52324000D03*
X93980000Y-99060000D03*
%TD*%
D23*
%TO.N,GND*%
X73660000Y-92710000D02*
X73660000Y-93980000D01*
X81310000Y-99060000D02*
X82550000Y-99060000D01*
X73563000Y-55977000D02*
X73660000Y-55880000D01*
X78970000Y-53110000D02*
X79756000Y-52324000D01*
X100360000Y-99060000D02*
X101600000Y-99060000D01*
X95220000Y-99060000D02*
X93980000Y-99060000D01*
X121920000Y-92710000D02*
X121920000Y-93980000D01*
X114270000Y-99060000D02*
X113030000Y-99060000D01*
X73563000Y-53243000D02*
X73660000Y-53340000D01*
X73563000Y-57410000D02*
X73563000Y-55977000D01*
X77438000Y-53110000D02*
X78970000Y-53110000D01*
X79756000Y-52324000D02*
X81280000Y-50800000D01*
X73563000Y-51810000D02*
X73563000Y-53243000D01*
%TO.N,/SCA*%
X80510000Y-55110000D02*
X81280000Y-55880000D01*
X77438000Y-55110000D02*
X80510000Y-55110000D01*
%TO.N,/SCL*%
X78970000Y-56110000D02*
X81280000Y-58420000D01*
X77438000Y-56110000D02*
X78970000Y-56110000D01*
D24*
%TO.N,Net-(J7-Pin_1)*%
X91440000Y-22860000D02*
X93980000Y-22860000D01*
X86360000Y-22860000D02*
X88900000Y-22860000D01*
X91440000Y-22860000D02*
X88900000Y-22860000D01*
X83820000Y-22860000D02*
X86360000Y-22860000D01*
X81280000Y-22860000D02*
X83820000Y-22860000D01*
%TO.N,Net-(J8-Pin_1)*%
X91440000Y-25400000D02*
X93980000Y-25400000D01*
X86360000Y-25400000D02*
X88900000Y-25400000D01*
X91440000Y-25400000D02*
X88900000Y-25400000D01*
X81280000Y-25400000D02*
X83820000Y-25400000D01*
X83820000Y-25400000D02*
X86360000Y-25400000D01*
%TO.N,Net-(J9-Pin_1)*%
X81280000Y-27940000D02*
X83820000Y-27940000D01*
X91440000Y-27940000D02*
X88900000Y-27940000D01*
X86360000Y-27940000D02*
X88900000Y-27940000D01*
X86360000Y-27940000D02*
X83820000Y-27940000D01*
X91440000Y-27940000D02*
X93980000Y-27940000D01*
%TO.N,Net-(J10-Pin_1)*%
X91440000Y-30480000D02*
X93980000Y-30480000D01*
X86360000Y-30480000D02*
X88900000Y-30480000D01*
X86360000Y-30480000D02*
X83820000Y-30480000D01*
X81280000Y-30480000D02*
X83820000Y-30480000D01*
X91440000Y-30480000D02*
X88900000Y-30480000D01*
%TO.N,Net-(J11-Pin_1)*%
X81280000Y-33020000D02*
X83820000Y-33020000D01*
X91440000Y-33020000D02*
X88900000Y-33020000D01*
X86360000Y-33020000D02*
X83820000Y-33020000D01*
X91440000Y-33020000D02*
X93980000Y-33020000D01*
X86360000Y-33020000D02*
X88900000Y-33020000D01*
%TO.N,Net-(J12-Pin_1)*%
X91440000Y-35560000D02*
X93980000Y-35560000D01*
X86360000Y-35560000D02*
X83820000Y-35560000D01*
X81280000Y-35560000D02*
X83820000Y-35560000D01*
X91440000Y-35560000D02*
X88900000Y-35560000D01*
X86360000Y-35560000D02*
X88900000Y-35560000D01*
%TO.N,Net-(J13-Pin_1)*%
X91440000Y-38100000D02*
X93980000Y-38100000D01*
X83820000Y-38100000D02*
X86360000Y-38100000D01*
X91440000Y-38100000D02*
X88900000Y-38100000D01*
X88900000Y-38100000D02*
X86360000Y-38100000D01*
X83820000Y-38100000D02*
X81280000Y-38100000D01*
%TO.N,Net-(J14-Pin_1)*%
X83820000Y-40640000D02*
X81280000Y-40640000D01*
X91440000Y-40640000D02*
X93980000Y-40640000D01*
X91440000Y-40640000D02*
X88900000Y-40640000D01*
X83820000Y-40640000D02*
X86360000Y-40640000D01*
X88900000Y-40640000D02*
X86360000Y-40640000D01*
%TO.N,Net-(J15-Pin_1)*%
X83820000Y-43180000D02*
X86360000Y-43180000D01*
X93980000Y-43180000D02*
X91440000Y-43180000D01*
X83820000Y-43180000D02*
X81280000Y-43180000D01*
X88900000Y-43180000D02*
X91440000Y-43180000D01*
X88900000Y-43180000D02*
X86360000Y-43180000D01*
%TO.N,Net-(J16-Pin_1)*%
X83820000Y-45720000D02*
X86360000Y-45720000D01*
X88900000Y-45720000D02*
X86360000Y-45720000D01*
X88900000Y-45720000D02*
X91440000Y-45720000D01*
X93980000Y-45720000D02*
X91440000Y-45720000D01*
X83820000Y-45720000D02*
X81280000Y-45720000D01*
%TO.N,Net-(J17-Pin_1)*%
X83820000Y-48260000D02*
X81280000Y-48260000D01*
X83820000Y-48260000D02*
X86360000Y-48260000D01*
X88900000Y-48260000D02*
X86360000Y-48260000D01*
X91440000Y-48260000D02*
X93980000Y-48260000D01*
X91440000Y-48260000D02*
X88900000Y-48260000D01*
%TO.N,Net-(J18-Pin_1)*%
X88900000Y-50800000D02*
X91440000Y-50800000D01*
X83820000Y-50800000D02*
X86360000Y-50800000D01*
X91440000Y-50800000D02*
X93980000Y-50800000D01*
X86360000Y-50800000D02*
X88900000Y-50800000D01*
%TO.N,Net-(J21-Pin_1)*%
X83820000Y-58420000D02*
X86360000Y-58420000D01*
X88900000Y-58420000D02*
X91440000Y-58420000D01*
X86360000Y-58420000D02*
X88900000Y-58420000D01*
X91440000Y-58420000D02*
X93980000Y-58420000D01*
%TO.N,Net-(J22-Pin_1)*%
X81280000Y-60960000D02*
X83820000Y-60960000D01*
X91440000Y-60960000D02*
X93980000Y-60960000D01*
X88900000Y-60960000D02*
X91440000Y-60960000D01*
X88900000Y-60960000D02*
X86360000Y-60960000D01*
X83820000Y-60960000D02*
X86360000Y-60960000D01*
%TO.N,Net-(J23-Pin_1)*%
X83820000Y-63500000D02*
X86360000Y-63500000D01*
X88900000Y-63500000D02*
X91440000Y-63500000D01*
X81280000Y-63500000D02*
X83820000Y-63500000D01*
X86360000Y-63500000D02*
X88900000Y-63500000D01*
X91440000Y-63500000D02*
X93980000Y-63500000D01*
%TO.N,Net-(J24-Pin_1)*%
X86360000Y-66040000D02*
X88900000Y-66040000D01*
X81280000Y-66040000D02*
X83820000Y-66040000D01*
X83820000Y-66040000D02*
X86360000Y-66040000D01*
X91440000Y-66040000D02*
X93980000Y-66040000D01*
X88900000Y-66040000D02*
X91440000Y-66040000D01*
%TO.N,Net-(J25-Pin_1)*%
X91440000Y-68580000D02*
X93980000Y-68580000D01*
X88900000Y-68580000D02*
X91440000Y-68580000D01*
X81280000Y-68580000D02*
X83820000Y-68580000D01*
X86360000Y-68580000D02*
X88900000Y-68580000D01*
X83820000Y-68580000D02*
X86360000Y-68580000D01*
%TO.N,Net-(J26-Pin_1)*%
X86360000Y-71120000D02*
X88900000Y-71120000D01*
X88900000Y-71120000D02*
X91440000Y-71120000D01*
X81280000Y-71120000D02*
X83820000Y-71120000D01*
X91440000Y-71120000D02*
X93980000Y-71120000D01*
X83820000Y-71120000D02*
X86360000Y-71120000D01*
%TO.N,Net-(J27-Pin_1)*%
X88900000Y-73660000D02*
X86360000Y-73660000D01*
X83820000Y-73660000D02*
X86360000Y-73660000D01*
X88900000Y-73660000D02*
X91440000Y-73660000D01*
X93980000Y-73660000D02*
X91440000Y-73660000D01*
X83820000Y-73660000D02*
X81280000Y-73660000D01*
%TO.N,Net-(J28-Pin_1)*%
X83820000Y-76200000D02*
X86360000Y-76200000D01*
X93980000Y-76200000D02*
X91440000Y-76200000D01*
X83820000Y-76200000D02*
X81280000Y-76200000D01*
X88900000Y-76200000D02*
X91440000Y-76200000D01*
X88900000Y-76200000D02*
X86360000Y-76200000D01*
%TO.N,Net-(J29-Pin_1)*%
X83820000Y-78740000D02*
X81280000Y-78740000D01*
X88900000Y-78740000D02*
X91440000Y-78740000D01*
X83820000Y-78740000D02*
X86360000Y-78740000D01*
X91440000Y-78740000D02*
X93980000Y-78740000D01*
X88900000Y-78740000D02*
X86360000Y-78740000D01*
%TO.N,Net-(J30-Pin_1)*%
X91440000Y-81280000D02*
X93980000Y-81280000D01*
X88900000Y-81280000D02*
X86360000Y-81280000D01*
X83820000Y-81280000D02*
X86360000Y-81280000D01*
X91440000Y-81280000D02*
X88900000Y-81280000D01*
X83820000Y-81280000D02*
X81280000Y-81280000D01*
%TO.N,Net-(J31-Pin_1)*%
X88900000Y-83820000D02*
X86360000Y-83820000D01*
X83820000Y-83820000D02*
X86360000Y-83820000D01*
X91440000Y-83820000D02*
X88900000Y-83820000D01*
X91440000Y-83820000D02*
X93980000Y-83820000D01*
X83820000Y-83820000D02*
X81280000Y-83820000D01*
%TO.N,Net-(J35-Pin_1)*%
X91440000Y-93980000D02*
X93980000Y-93980000D01*
X83820000Y-93980000D02*
X81280000Y-93980000D01*
X88900000Y-93980000D02*
X86360000Y-93980000D01*
X91440000Y-93980000D02*
X88900000Y-93980000D01*
X83820000Y-93980000D02*
X86360000Y-93980000D01*
%TO.N,Net-(J36-Pin_1)*%
X86360000Y-96520000D02*
X88900000Y-96520000D01*
X91440000Y-96520000D02*
X93980000Y-96520000D01*
X83820000Y-96520000D02*
X86360000Y-96520000D01*
X88900000Y-96520000D02*
X91440000Y-96520000D01*
X81280000Y-96520000D02*
X83820000Y-96520000D01*
D23*
%TO.N,Net-(J37-Pin_1)*%
X96520000Y-96520000D02*
X96520000Y-99060000D01*
X96520000Y-53340000D02*
X96520000Y-55880000D01*
X96520000Y-43180000D02*
X96520000Y-45720000D01*
X96520000Y-71120000D02*
X96520000Y-68580000D01*
X96520000Y-73660000D02*
X96520000Y-76200000D01*
X96520000Y-43180000D02*
X96520000Y-40640000D01*
X96520000Y-45720000D02*
X96520000Y-48260000D01*
X96520000Y-22860000D02*
X96520000Y-25400000D01*
X96520000Y-81280000D02*
X96520000Y-83820000D01*
X96520000Y-83820000D02*
X96520000Y-86360000D01*
X96520000Y-91440000D02*
X96520000Y-93980000D01*
X96520000Y-63500000D02*
X96520000Y-66040000D01*
X96520000Y-68580000D02*
X96520000Y-66040000D01*
X96520000Y-38100000D02*
X96520000Y-40640000D01*
X96520000Y-55880000D02*
X96520000Y-58420000D01*
X96520000Y-78740000D02*
X96520000Y-81280000D01*
X96520000Y-30480000D02*
X96520000Y-33020000D01*
X96520000Y-35560000D02*
X96520000Y-38100000D01*
X96520000Y-58420000D02*
X96520000Y-60960000D01*
X96520000Y-93980000D02*
X96520000Y-96520000D01*
X96520000Y-86360000D02*
X96520000Y-88900000D01*
X96520000Y-60960000D02*
X96520000Y-63500000D01*
X96520000Y-76200000D02*
X96520000Y-78740000D01*
X96520000Y-50800000D02*
X96520000Y-53340000D01*
X96520000Y-35560000D02*
X96520000Y-33020000D01*
X96520000Y-88900000D02*
X96520000Y-91440000D01*
X96520000Y-48260000D02*
X96520000Y-50800000D01*
X96520000Y-27940000D02*
X96520000Y-30480000D01*
X96520000Y-27940000D02*
X96520000Y-25400000D01*
X96520000Y-71120000D02*
X96520000Y-73660000D01*
%TO.N,Net-(J38-Pin_1)*%
X99060000Y-43180000D02*
X99060000Y-45720000D01*
X99060000Y-35560000D02*
X99060000Y-38100000D01*
X99060000Y-55880000D02*
X99060000Y-58420000D01*
X99060000Y-71120000D02*
X99060000Y-73660000D01*
X99060000Y-53340000D02*
X99060000Y-55880000D01*
X99060000Y-86360000D02*
X99060000Y-88900000D01*
X99060000Y-81280000D02*
X99060000Y-83820000D01*
X99060000Y-66040000D02*
X99060000Y-63500000D01*
X99060000Y-60960000D02*
X99060000Y-63500000D01*
X99060000Y-30480000D02*
X99060000Y-33020000D01*
X99060000Y-45720000D02*
X99060000Y-50800000D01*
X99060000Y-91440000D02*
X99060000Y-93980000D01*
X99060000Y-76200000D02*
X99060000Y-78740000D01*
X99060000Y-38100000D02*
X99060000Y-40640000D01*
X99060000Y-99060000D02*
X99060000Y-96520000D01*
X99060000Y-88900000D02*
X99060000Y-91440000D01*
X99060000Y-45720000D02*
X99060000Y-48260000D01*
X99060000Y-68580000D02*
X99060000Y-66040000D01*
X99060000Y-43180000D02*
X99060000Y-40640000D01*
X99060000Y-48260000D02*
X99060000Y-53340000D01*
X99060000Y-33020000D02*
X99060000Y-35560000D01*
X99060000Y-73660000D02*
X99060000Y-76200000D01*
X99060000Y-93980000D02*
X99060000Y-96520000D01*
X99060000Y-58420000D02*
X99060000Y-60960000D01*
X99060000Y-27940000D02*
X99060000Y-30480000D01*
X99060000Y-83820000D02*
X99060000Y-86360000D01*
X99060000Y-22860000D02*
X99060000Y-25400000D01*
X99060000Y-71120000D02*
X99060000Y-68580000D01*
X99060000Y-78740000D02*
X99060000Y-81280000D01*
X99060000Y-25400000D02*
X99060000Y-27940000D01*
%TO.N,/VDD*%
X77438000Y-54110000D02*
X80510000Y-54110000D01*
X80510000Y-54110000D02*
X81280000Y-53340000D01*
D24*
%TO.N,Net-(J32-Pin_1)*%
X83820000Y-86360000D02*
X81280000Y-86360000D01*
X88900000Y-86360000D02*
X86360000Y-86360000D01*
X93980000Y-86360000D02*
X91440000Y-86360000D01*
X83820000Y-86360000D02*
X86360000Y-86360000D01*
X88900000Y-86360000D02*
X91440000Y-86360000D01*
%TO.N,Net-(J33-Pin_1)*%
X83820000Y-88900000D02*
X86360000Y-88900000D01*
X91440000Y-88900000D02*
X93980000Y-88900000D01*
X83820000Y-88900000D02*
X81280000Y-88900000D01*
X88900000Y-88900000D02*
X86360000Y-88900000D01*
X91440000Y-88900000D02*
X88900000Y-88900000D01*
%TO.N,Net-(J19-Pin_1)*%
X91440000Y-53340000D02*
X93980000Y-53340000D01*
X83820000Y-53340000D02*
X86360000Y-53340000D01*
X86360000Y-53340000D02*
X88900000Y-53340000D01*
X88900000Y-53340000D02*
X91440000Y-53340000D01*
%TO.N,Net-(J20-Pin_1)*%
X83820000Y-55880000D02*
X86360000Y-55880000D01*
X86360000Y-55880000D02*
X88900000Y-55880000D01*
X88900000Y-55880000D02*
X91440000Y-55880000D01*
X91440000Y-55880000D02*
X93980000Y-55880000D01*
%TO.N,Net-(J34-Pin_1)*%
X88900000Y-91440000D02*
X86360000Y-91440000D01*
X83820000Y-91440000D02*
X86360000Y-91440000D01*
X91440000Y-91440000D02*
X88900000Y-91440000D01*
X91440000Y-91440000D02*
X93980000Y-91440000D01*
X83820000Y-91440000D02*
X81280000Y-91440000D01*
%TO.N,Net-(J39-Pin_1)*%
X109220000Y-22860000D02*
X111760000Y-22860000D01*
X109220000Y-22860000D02*
X114300000Y-22860000D01*
X106680000Y-22860000D02*
X109220000Y-22860000D01*
X101600000Y-22860000D02*
X104140000Y-22860000D01*
X104140000Y-22860000D02*
X106680000Y-22860000D01*
%TO.N,Net-(J40-Pin_1)*%
X109220000Y-25400000D02*
X111760000Y-25400000D01*
X104140000Y-25400000D02*
X101600000Y-25400000D01*
X109220000Y-25400000D02*
X106680000Y-25400000D01*
X111760000Y-25400000D02*
X114300000Y-25400000D01*
X104140000Y-25400000D02*
X106680000Y-25400000D01*
%TO.N,Net-(J41-Pin_1)*%
X111760000Y-27940000D02*
X114300000Y-27940000D01*
X109220000Y-27940000D02*
X106680000Y-27940000D01*
X109220000Y-27940000D02*
X111760000Y-27940000D01*
X104140000Y-27940000D02*
X106680000Y-27940000D01*
X104140000Y-27940000D02*
X101600000Y-27940000D01*
%TO.N,Net-(J42-Pin_1)*%
X111760000Y-30480000D02*
X114300000Y-30480000D01*
X109220000Y-30480000D02*
X106680000Y-30480000D01*
X104140000Y-30480000D02*
X106680000Y-30480000D01*
X104140000Y-30480000D02*
X101600000Y-30480000D01*
X109220000Y-30480000D02*
X111760000Y-30480000D01*
D23*
%TO.N,Net-(J3-Pin_1)*%
X78900000Y-97950000D02*
X78900000Y-91600000D01*
X76200000Y-50800000D02*
X78740000Y-48260000D01*
X78740000Y-86360000D02*
X78740000Y-83820000D01*
X78900000Y-91600000D02*
X78740000Y-91440000D01*
X78740000Y-76200000D02*
X78740000Y-73660000D01*
X78740000Y-38100000D02*
X78740000Y-35560000D01*
X78740000Y-33020000D02*
X78740000Y-30480000D01*
X76200000Y-58420000D02*
X76200000Y-50800000D01*
X78740000Y-45720000D02*
X78740000Y-43180000D01*
X78740000Y-73660000D02*
X78740000Y-71120000D01*
X80010000Y-99060000D02*
X78900000Y-97950000D01*
X78740000Y-81280000D02*
X78740000Y-78740000D01*
X78740000Y-63500000D02*
X78740000Y-60960000D01*
X78740000Y-88900000D02*
X78740000Y-86360000D01*
X78740000Y-83820000D02*
X78740000Y-81280000D01*
X78740000Y-66040000D02*
X78740000Y-63500000D01*
X78740000Y-30480000D02*
X78740000Y-27940000D01*
X78740000Y-91440000D02*
X78740000Y-88900000D01*
X78740000Y-68580000D02*
X78740000Y-66040000D01*
X78740000Y-48260000D02*
X78740000Y-45720000D01*
X78740000Y-35560000D02*
X78740000Y-33020000D01*
X78740000Y-40640000D02*
X78740000Y-38100000D01*
X78740000Y-60960000D02*
X76200000Y-58420000D01*
X78740000Y-68580000D02*
X78740000Y-71120000D01*
X78740000Y-78740000D02*
X78740000Y-76200000D01*
X78740000Y-43180000D02*
X78740000Y-40640000D01*
%TO.N,Net-(J5-Pin_1)*%
X76200000Y-77470000D02*
X76200000Y-76200000D01*
X76200000Y-33020000D02*
X76200000Y-30480000D01*
X76200000Y-60960000D02*
X74930000Y-59690000D01*
X76200000Y-40640000D02*
X76200000Y-38100000D01*
X76200000Y-81280000D02*
X76200000Y-78740000D01*
X76200000Y-86360000D02*
X76200000Y-83820000D01*
X76200000Y-63500000D02*
X76200000Y-60960000D01*
X76200000Y-48260000D02*
X76200000Y-45720000D01*
X76200000Y-91440000D02*
X76200000Y-88900000D01*
X76200000Y-38100000D02*
X76200000Y-35560000D01*
X76200000Y-88900000D02*
X76200000Y-86360000D01*
X76200000Y-30480000D02*
X76200000Y-27940000D01*
X76200000Y-45720000D02*
X76200000Y-43180000D01*
X76200000Y-71120000D02*
X76200000Y-68580000D01*
X76200000Y-73660000D02*
X76200000Y-71120000D01*
X76200000Y-43180000D02*
X76200000Y-40640000D01*
X76200000Y-66040000D02*
X76200000Y-63500000D01*
X76200000Y-77470000D02*
X76200000Y-73660000D01*
X74930000Y-59690000D02*
X74930000Y-49530000D01*
X76200000Y-78740000D02*
X76200000Y-77470000D01*
X74930000Y-49530000D02*
X76200000Y-48260000D01*
X76200000Y-91440000D02*
X73690000Y-91440000D01*
X76200000Y-35560000D02*
X76200000Y-33020000D01*
X73690000Y-91440000D02*
X73660000Y-91410000D01*
X76200000Y-83820000D02*
X76200000Y-81280000D01*
X76200000Y-68580000D02*
X76200000Y-66040000D01*
D24*
%TO.N,Net-(J43-Pin_1)*%
X109220000Y-33020000D02*
X111760000Y-33020000D01*
X111760000Y-33020000D02*
X114300000Y-33020000D01*
X104140000Y-33020000D02*
X106680000Y-33020000D01*
X104140000Y-33020000D02*
X101600000Y-33020000D01*
X109220000Y-33020000D02*
X106680000Y-33020000D01*
%TO.N,Net-(J44-Pin_1)*%
X104140000Y-35560000D02*
X106680000Y-35560000D01*
X109220000Y-35560000D02*
X106680000Y-35560000D01*
X111760000Y-35560000D02*
X114300000Y-35560000D01*
X104140000Y-35560000D02*
X101600000Y-35560000D01*
X109220000Y-35560000D02*
X111760000Y-35560000D01*
%TO.N,Net-(J45-Pin_1)*%
X109220000Y-38100000D02*
X106680000Y-38100000D01*
X104140000Y-38100000D02*
X101600000Y-38100000D01*
X104140000Y-38100000D02*
X106680000Y-38100000D01*
X109220000Y-38100000D02*
X111760000Y-38100000D01*
X111760000Y-38100000D02*
X114300000Y-38100000D01*
%TO.N,Net-(J46-Pin_1)*%
X111760000Y-40640000D02*
X114300000Y-40640000D01*
X109220000Y-40640000D02*
X106680000Y-40640000D01*
X104140000Y-40640000D02*
X106680000Y-40640000D01*
X104140000Y-40640000D02*
X101600000Y-40640000D01*
X109220000Y-40640000D02*
X111760000Y-40640000D01*
%TO.N,Net-(J47-Pin_1)*%
X104140000Y-43180000D02*
X101600000Y-43180000D01*
X104140000Y-43180000D02*
X106680000Y-43180000D01*
X111760000Y-43180000D02*
X114300000Y-43180000D01*
X109220000Y-43180000D02*
X106680000Y-43180000D01*
X109220000Y-43180000D02*
X111760000Y-43180000D01*
%TO.N,Net-(J48-Pin_1)*%
X109220000Y-45720000D02*
X111760000Y-45720000D01*
X111760000Y-45720000D02*
X114300000Y-45720000D01*
X109220000Y-45720000D02*
X106680000Y-45720000D01*
X104140000Y-45720000D02*
X106680000Y-45720000D01*
X104140000Y-45720000D02*
X101600000Y-45720000D01*
%TO.N,Net-(J49-Pin_1)*%
X111760000Y-48260000D02*
X114300000Y-48260000D01*
X109220000Y-48260000D02*
X106680000Y-48260000D01*
X104140000Y-48260000D02*
X106680000Y-48260000D01*
X104140000Y-48260000D02*
X101600000Y-48260000D01*
X109220000Y-48260000D02*
X111760000Y-48260000D01*
%TO.N,Net-(J50-Pin_1)*%
X109220000Y-50800000D02*
X106680000Y-50800000D01*
X111760000Y-50800000D02*
X114300000Y-50800000D01*
X104140000Y-50800000D02*
X106680000Y-50800000D01*
X104140000Y-50800000D02*
X101600000Y-50800000D01*
X109220000Y-50800000D02*
X111760000Y-50800000D01*
%TO.N,Net-(J51-Pin_1)*%
X109220000Y-53340000D02*
X106680000Y-53340000D01*
X111760000Y-53340000D02*
X114300000Y-53340000D01*
X104140000Y-53340000D02*
X101600000Y-53340000D01*
X109220000Y-53340000D02*
X111760000Y-53340000D01*
X104140000Y-53340000D02*
X106680000Y-53340000D01*
%TO.N,Net-(J52-Pin_1)*%
X104140000Y-55880000D02*
X106680000Y-55880000D01*
X111760000Y-55880000D02*
X114300000Y-55880000D01*
X109220000Y-55880000D02*
X106680000Y-55880000D01*
X104140000Y-55880000D02*
X101600000Y-55880000D01*
X109220000Y-55880000D02*
X111760000Y-55880000D01*
%TO.N,Net-(J53-Pin_1)*%
X109220000Y-58420000D02*
X111760000Y-58420000D01*
X111760000Y-58420000D02*
X114300000Y-58420000D01*
X106680000Y-58420000D02*
X109220000Y-58420000D01*
X104140000Y-58420000D02*
X101600000Y-58420000D01*
X104140000Y-58420000D02*
X106680000Y-58420000D01*
%TO.N,Net-(J54-Pin_1)*%
X104140000Y-60960000D02*
X106680000Y-60960000D01*
X109220000Y-60960000D02*
X106680000Y-60960000D01*
X109220000Y-60960000D02*
X111760000Y-60960000D01*
X111760000Y-60960000D02*
X114300000Y-60960000D01*
X104140000Y-60960000D02*
X101600000Y-60960000D01*
%TO.N,Net-(J55-Pin_1)*%
X111760000Y-63500000D02*
X114300000Y-63500000D01*
X104140000Y-63500000D02*
X101600000Y-63500000D01*
X104140000Y-63500000D02*
X106680000Y-63500000D01*
X109220000Y-63500000D02*
X111760000Y-63500000D01*
X109220000Y-63500000D02*
X106680000Y-63500000D01*
%TO.N,Net-(J56-Pin_1)*%
X104140000Y-66040000D02*
X106680000Y-66040000D01*
X114300000Y-66040000D02*
X111760000Y-66040000D01*
X109220000Y-66040000D02*
X111760000Y-66040000D01*
X109220000Y-66040000D02*
X106680000Y-66040000D01*
X104140000Y-66040000D02*
X101600000Y-66040000D01*
%TO.N,Net-(J57-Pin_1)*%
X114300000Y-68580000D02*
X111760000Y-68580000D01*
X109220000Y-68580000D02*
X111760000Y-68580000D01*
X109220000Y-68580000D02*
X106680000Y-68580000D01*
X104140000Y-68580000D02*
X106680000Y-68580000D01*
X104140000Y-68580000D02*
X101600000Y-68580000D01*
%TO.N,Net-(J58-Pin_1)*%
X104140000Y-71120000D02*
X101600000Y-71120000D01*
X104140000Y-71120000D02*
X106680000Y-71120000D01*
X114300000Y-71120000D02*
X111760000Y-71120000D01*
X109220000Y-71120000D02*
X111760000Y-71120000D01*
X109220000Y-71120000D02*
X106680000Y-71120000D01*
%TO.N,Net-(J59-Pin_1)*%
X104140000Y-73660000D02*
X106680000Y-73660000D01*
X109220000Y-73660000D02*
X106680000Y-73660000D01*
X109220000Y-73660000D02*
X111760000Y-73660000D01*
X114300000Y-73660000D02*
X111760000Y-73660000D01*
X104140000Y-73660000D02*
X101600000Y-73660000D01*
%TO.N,Net-(J60-Pin_1)*%
X104140000Y-76200000D02*
X101600000Y-76200000D01*
X109220000Y-76200000D02*
X106680000Y-76200000D01*
X104140000Y-76200000D02*
X106680000Y-76200000D01*
X109220000Y-76200000D02*
X111760000Y-76200000D01*
X114300000Y-76200000D02*
X111760000Y-76200000D01*
%TO.N,Net-(J61-Pin_1)*%
X104140000Y-78740000D02*
X106680000Y-78740000D01*
X109220000Y-78740000D02*
X106680000Y-78740000D01*
X104140000Y-78740000D02*
X101600000Y-78740000D01*
X109220000Y-78740000D02*
X111760000Y-78740000D01*
X114300000Y-78740000D02*
X111760000Y-78740000D01*
%TO.N,Net-(J62-Pin_1)*%
X104140000Y-81280000D02*
X106680000Y-81280000D01*
X109220000Y-81280000D02*
X111760000Y-81280000D01*
X114300000Y-81280000D02*
X111760000Y-81280000D01*
X104140000Y-81280000D02*
X101600000Y-81280000D01*
X109220000Y-81280000D02*
X106680000Y-81280000D01*
%TO.N,Net-(J63-Pin_1)*%
X109220000Y-83820000D02*
X111760000Y-83820000D01*
X104140000Y-83820000D02*
X106680000Y-83820000D01*
X104140000Y-83820000D02*
X101600000Y-83820000D01*
X114300000Y-83820000D02*
X111760000Y-83820000D01*
X109220000Y-83820000D02*
X106680000Y-83820000D01*
%TO.N,Net-(J64-Pin_1)*%
X104140000Y-86360000D02*
X106680000Y-86360000D01*
X109220000Y-86360000D02*
X106680000Y-86360000D01*
X104140000Y-86360000D02*
X101600000Y-86360000D01*
X114300000Y-86360000D02*
X111760000Y-86360000D01*
X109220000Y-86360000D02*
X111760000Y-86360000D01*
%TO.N,Net-(J65-Pin_1)*%
X109220000Y-88900000D02*
X106680000Y-88900000D01*
X114300000Y-88900000D02*
X111760000Y-88900000D01*
X109220000Y-88900000D02*
X111760000Y-88900000D01*
X104140000Y-88900000D02*
X106680000Y-88900000D01*
X104140000Y-88900000D02*
X101600000Y-88900000D01*
%TO.N,Net-(J66-Pin_1)*%
X109220000Y-91440000D02*
X111760000Y-91440000D01*
X109220000Y-91440000D02*
X106680000Y-91440000D01*
X104140000Y-91440000D02*
X106680000Y-91440000D01*
X104140000Y-91440000D02*
X101600000Y-91440000D01*
X114300000Y-91440000D02*
X111760000Y-91440000D01*
%TO.N,Net-(J67-Pin_1)*%
X109220000Y-93980000D02*
X106680000Y-93980000D01*
X104140000Y-93980000D02*
X106680000Y-93980000D01*
X104140000Y-93980000D02*
X101600000Y-93980000D01*
X109220000Y-93980000D02*
X111760000Y-93980000D01*
X114300000Y-93980000D02*
X111760000Y-93980000D01*
%TO.N,Net-(J68-Pin_1)*%
X104140000Y-96520000D02*
X106680000Y-96520000D01*
X114300000Y-96520000D02*
X111760000Y-96520000D01*
X109220000Y-96520000D02*
X111760000Y-96520000D01*
X104140000Y-96520000D02*
X101600000Y-96520000D01*
X109220000Y-96520000D02*
X106680000Y-96520000D01*
D23*
%TO.N,Net-(J69-Pin_1)*%
X119380000Y-30480000D02*
X119380000Y-33020000D01*
X119380000Y-76200000D02*
X119380000Y-78740000D01*
X119380000Y-83820000D02*
X119380000Y-86360000D01*
X119380000Y-58420000D02*
X119380000Y-55880000D01*
X119380000Y-81280000D02*
X119380000Y-83820000D01*
X119380000Y-40640000D02*
X119380000Y-38100000D01*
X119380000Y-86360000D02*
X119380000Y-88900000D01*
X119380000Y-63500000D02*
X119380000Y-66040000D01*
X121890000Y-91440000D02*
X121920000Y-91410000D01*
X119380000Y-58420000D02*
X119380000Y-60960000D01*
X119380000Y-33020000D02*
X119380000Y-35560000D01*
X119380000Y-78740000D02*
X119380000Y-81280000D01*
X119380000Y-53340000D02*
X119380000Y-50800000D01*
X119380000Y-88900000D02*
X119380000Y-91440000D01*
X119380000Y-45720000D02*
X119380000Y-48260000D01*
X119380000Y-66040000D02*
X119380000Y-68580000D01*
X119380000Y-45720000D02*
X119380000Y-43180000D01*
X119380000Y-48260000D02*
X119380000Y-50800000D01*
X119380000Y-68580000D02*
X119380000Y-71120000D01*
X119380000Y-43180000D02*
X119380000Y-40640000D01*
X119380000Y-71120000D02*
X119380000Y-73660000D01*
X119380000Y-27940000D02*
X119380000Y-30480000D01*
X119380000Y-63500000D02*
X119380000Y-60960000D01*
X119380000Y-38100000D02*
X119380000Y-35560000D01*
X119380000Y-73660000D02*
X119380000Y-76200000D01*
X119380000Y-53340000D02*
X119380000Y-55880000D01*
X119380000Y-91440000D02*
X121890000Y-91440000D01*
%TO.N,Net-(J70-Pin_1)*%
X116840000Y-81280000D02*
X116840000Y-83820000D01*
X116840000Y-45720000D02*
X116840000Y-43180000D01*
X116840000Y-58420000D02*
X116840000Y-60960000D01*
X116840000Y-63500000D02*
X116840000Y-60960000D01*
X116840000Y-38100000D02*
X116840000Y-40640000D01*
X116840000Y-88900000D02*
X116840000Y-91440000D01*
X115570000Y-99060000D02*
X116680000Y-97950000D01*
X116840000Y-71120000D02*
X116840000Y-73660000D01*
X116840000Y-63500000D02*
X116840000Y-66040000D01*
X116840000Y-58420000D02*
X116840000Y-55880000D01*
X116840000Y-86360000D02*
X116840000Y-88900000D01*
X116680000Y-97950000D02*
X116680000Y-91600000D01*
X116840000Y-30480000D02*
X116840000Y-33020000D01*
X116840000Y-76200000D02*
X116840000Y-78740000D01*
X116840000Y-73660000D02*
X116840000Y-76200000D01*
X116840000Y-68580000D02*
X116840000Y-71120000D01*
X116840000Y-27940000D02*
X116840000Y-30480000D01*
X116840000Y-66040000D02*
X116840000Y-68580000D01*
X116680000Y-91600000D02*
X116840000Y-91440000D01*
X116840000Y-53340000D02*
X116840000Y-55880000D01*
X116840000Y-53340000D02*
X116840000Y-50800000D01*
X116840000Y-48260000D02*
X116840000Y-50800000D01*
X116840000Y-43180000D02*
X116840000Y-40640000D01*
X116840000Y-38100000D02*
X116840000Y-35560000D01*
X116840000Y-78740000D02*
X116840000Y-81280000D01*
X116840000Y-35560000D02*
X116840000Y-33020000D01*
X116840000Y-45720000D02*
X116840000Y-48260000D01*
X116840000Y-83820000D02*
X116840000Y-86360000D01*
%TD*%
M02*
