%TF.GenerationSoftware,KiCad,Pcbnew,8.0.8*%
%TF.CreationDate,2025-08-24T09:26:36-04:00*%
%TF.ProjectId,project-protoboard,70726f6a-6563-4742-9d70-726f746f626f,rev?*%
%TF.SameCoordinates,Original*%
%TF.FileFunction,Legend,Top*%
%TF.FilePolarity,Positive*%
%FSLAX46Y46*%
G04 Gerber Fmt 4.6, Leading zero omitted, Abs format (unit mm)*
G04 Created by KiCad (PCBNEW 8.0.8) date 2025-08-24 09:26:36*
%MOMM*%
%LPD*%
G01*
G04 APERTURE LIST*
%ADD10C,0.150000*%
%ADD11C,0.120000*%
%ADD12C,0.127000*%
%ADD13C,0.300000*%
G04 APERTURE END LIST*
D10*
X82550000Y-49530000D02*
X82550000Y-59690000D01*
X80010000Y-92710000D02*
X80010000Y-59690000D01*
X115570000Y-92710000D02*
X115570000Y-26670000D01*
X80010000Y-49530000D02*
X80010000Y-26670000D01*
X95250000Y-97790000D02*
X95250000Y-21590000D01*
X82550000Y-59690000D02*
X72644000Y-59690000D01*
X72644000Y-49530000D02*
X82550000Y-49530000D01*
X100330000Y-21590000D02*
X100330000Y-97790000D01*
X79283160Y-56226104D02*
X79759350Y-56226104D01*
X79187922Y-56511819D02*
X79521255Y-55511819D01*
X79521255Y-55511819D02*
X79854588Y-56511819D01*
X85490207Y-99342580D02*
X85442588Y-99390200D01*
X85442588Y-99390200D02*
X85299731Y-99437819D01*
X85299731Y-99437819D02*
X85204493Y-99437819D01*
X85204493Y-99437819D02*
X85061636Y-99390200D01*
X85061636Y-99390200D02*
X84966398Y-99294961D01*
X84966398Y-99294961D02*
X84918779Y-99199723D01*
X84918779Y-99199723D02*
X84871160Y-99009247D01*
X84871160Y-99009247D02*
X84871160Y-98866390D01*
X84871160Y-98866390D02*
X84918779Y-98675914D01*
X84918779Y-98675914D02*
X84966398Y-98580676D01*
X84966398Y-98580676D02*
X85061636Y-98485438D01*
X85061636Y-98485438D02*
X85204493Y-98437819D01*
X85204493Y-98437819D02*
X85299731Y-98437819D01*
X85299731Y-98437819D02*
X85442588Y-98485438D01*
X85442588Y-98485438D02*
X85490207Y-98533057D01*
X86061636Y-99437819D02*
X85966398Y-99390200D01*
X85966398Y-99390200D02*
X85918779Y-99342580D01*
X85918779Y-99342580D02*
X85871160Y-99247342D01*
X85871160Y-99247342D02*
X85871160Y-98961628D01*
X85871160Y-98961628D02*
X85918779Y-98866390D01*
X85918779Y-98866390D02*
X85966398Y-98818771D01*
X85966398Y-98818771D02*
X86061636Y-98771152D01*
X86061636Y-98771152D02*
X86204493Y-98771152D01*
X86204493Y-98771152D02*
X86299731Y-98818771D01*
X86299731Y-98818771D02*
X86347350Y-98866390D01*
X86347350Y-98866390D02*
X86394969Y-98961628D01*
X86394969Y-98961628D02*
X86394969Y-99247342D01*
X86394969Y-99247342D02*
X86347350Y-99342580D01*
X86347350Y-99342580D02*
X86299731Y-99390200D01*
X86299731Y-99390200D02*
X86204493Y-99437819D01*
X86204493Y-99437819D02*
X86061636Y-99437819D01*
X86823541Y-98771152D02*
X86823541Y-99437819D01*
X86823541Y-98866390D02*
X86871160Y-98818771D01*
X86871160Y-98818771D02*
X86966398Y-98771152D01*
X86966398Y-98771152D02*
X87109255Y-98771152D01*
X87109255Y-98771152D02*
X87204493Y-98818771D01*
X87204493Y-98818771D02*
X87252112Y-98914009D01*
X87252112Y-98914009D02*
X87252112Y-99437819D01*
X87728303Y-98771152D02*
X87728303Y-99437819D01*
X87728303Y-98866390D02*
X87775922Y-98818771D01*
X87775922Y-98818771D02*
X87871160Y-98771152D01*
X87871160Y-98771152D02*
X88014017Y-98771152D01*
X88014017Y-98771152D02*
X88109255Y-98818771D01*
X88109255Y-98818771D02*
X88156874Y-98914009D01*
X88156874Y-98914009D02*
X88156874Y-99437819D01*
X89014017Y-99390200D02*
X88918779Y-99437819D01*
X88918779Y-99437819D02*
X88728303Y-99437819D01*
X88728303Y-99437819D02*
X88633065Y-99390200D01*
X88633065Y-99390200D02*
X88585446Y-99294961D01*
X88585446Y-99294961D02*
X88585446Y-98914009D01*
X88585446Y-98914009D02*
X88633065Y-98818771D01*
X88633065Y-98818771D02*
X88728303Y-98771152D01*
X88728303Y-98771152D02*
X88918779Y-98771152D01*
X88918779Y-98771152D02*
X89014017Y-98818771D01*
X89014017Y-98818771D02*
X89061636Y-98914009D01*
X89061636Y-98914009D02*
X89061636Y-99009247D01*
X89061636Y-99009247D02*
X88585446Y-99104485D01*
X89918779Y-99390200D02*
X89823541Y-99437819D01*
X89823541Y-99437819D02*
X89633065Y-99437819D01*
X89633065Y-99437819D02*
X89537827Y-99390200D01*
X89537827Y-99390200D02*
X89490208Y-99342580D01*
X89490208Y-99342580D02*
X89442589Y-99247342D01*
X89442589Y-99247342D02*
X89442589Y-98961628D01*
X89442589Y-98961628D02*
X89490208Y-98866390D01*
X89490208Y-98866390D02*
X89537827Y-98818771D01*
X89537827Y-98818771D02*
X89633065Y-98771152D01*
X89633065Y-98771152D02*
X89823541Y-98771152D01*
X89823541Y-98771152D02*
X89918779Y-98818771D01*
X90204494Y-98771152D02*
X90585446Y-98771152D01*
X90347351Y-98437819D02*
X90347351Y-99294961D01*
X90347351Y-99294961D02*
X90394970Y-99390200D01*
X90394970Y-99390200D02*
X90490208Y-99437819D01*
X90490208Y-99437819D02*
X90585446Y-99437819D01*
X91537828Y-98771152D02*
X91918780Y-98771152D01*
X91680685Y-98437819D02*
X91680685Y-99294961D01*
X91680685Y-99294961D02*
X91728304Y-99390200D01*
X91728304Y-99390200D02*
X91823542Y-99437819D01*
X91823542Y-99437819D02*
X91918780Y-99437819D01*
X92394971Y-99437819D02*
X92299733Y-99390200D01*
X92299733Y-99390200D02*
X92252114Y-99342580D01*
X92252114Y-99342580D02*
X92204495Y-99247342D01*
X92204495Y-99247342D02*
X92204495Y-98961628D01*
X92204495Y-98961628D02*
X92252114Y-98866390D01*
X92252114Y-98866390D02*
X92299733Y-98818771D01*
X92299733Y-98818771D02*
X92394971Y-98771152D01*
X92394971Y-98771152D02*
X92537828Y-98771152D01*
X92537828Y-98771152D02*
X92633066Y-98818771D01*
X92633066Y-98818771D02*
X92680685Y-98866390D01*
X92680685Y-98866390D02*
X92728304Y-98961628D01*
X92728304Y-98961628D02*
X92728304Y-99247342D01*
X92728304Y-99247342D02*
X92680685Y-99342580D01*
X92680685Y-99342580D02*
X92633066Y-99390200D01*
X92633066Y-99390200D02*
X92537828Y-99437819D01*
X92537828Y-99437819D02*
X92394971Y-99437819D01*
X79076779Y-53336866D02*
X79838684Y-53336866D01*
X79457731Y-53717819D02*
X79457731Y-52955914D01*
X77973588Y-50225438D02*
X77878350Y-50177819D01*
X77878350Y-50177819D02*
X77735493Y-50177819D01*
X77735493Y-50177819D02*
X77592636Y-50225438D01*
X77592636Y-50225438D02*
X77497398Y-50320676D01*
X77497398Y-50320676D02*
X77449779Y-50415914D01*
X77449779Y-50415914D02*
X77402160Y-50606390D01*
X77402160Y-50606390D02*
X77402160Y-50749247D01*
X77402160Y-50749247D02*
X77449779Y-50939723D01*
X77449779Y-50939723D02*
X77497398Y-51034961D01*
X77497398Y-51034961D02*
X77592636Y-51130200D01*
X77592636Y-51130200D02*
X77735493Y-51177819D01*
X77735493Y-51177819D02*
X77830731Y-51177819D01*
X77830731Y-51177819D02*
X77973588Y-51130200D01*
X77973588Y-51130200D02*
X78021207Y-51082580D01*
X78021207Y-51082580D02*
X78021207Y-50749247D01*
X78021207Y-50749247D02*
X77830731Y-50749247D01*
X78449779Y-51177819D02*
X78449779Y-50177819D01*
X78449779Y-50177819D02*
X79021207Y-51177819D01*
X79021207Y-51177819D02*
X79021207Y-50177819D01*
X79497398Y-51177819D02*
X79497398Y-50177819D01*
X79497398Y-50177819D02*
X79735493Y-50177819D01*
X79735493Y-50177819D02*
X79878350Y-50225438D01*
X79878350Y-50225438D02*
X79973588Y-50320676D01*
X79973588Y-50320676D02*
X80021207Y-50415914D01*
X80021207Y-50415914D02*
X80068826Y-50606390D01*
X80068826Y-50606390D02*
X80068826Y-50749247D01*
X80068826Y-50749247D02*
X80021207Y-50939723D01*
X80021207Y-50939723D02*
X79973588Y-51034961D01*
X79973588Y-51034961D02*
X79878350Y-51130200D01*
X79878350Y-51130200D02*
X79735493Y-51177819D01*
X79735493Y-51177819D02*
X79497398Y-51177819D01*
X121377152Y-87388458D02*
X122043819Y-87150363D01*
X122043819Y-87150363D02*
X121377152Y-86912268D01*
X122043819Y-86007506D02*
X122043819Y-86578934D01*
X122043819Y-86293220D02*
X121043819Y-86293220D01*
X121043819Y-86293220D02*
X121186676Y-86388458D01*
X121186676Y-86388458D02*
X121281914Y-86483696D01*
X121281914Y-86483696D02*
X121329533Y-86578934D01*
X121948580Y-85578934D02*
X121996200Y-85531315D01*
X121996200Y-85531315D02*
X122043819Y-85578934D01*
X122043819Y-85578934D02*
X121996200Y-85626553D01*
X121996200Y-85626553D02*
X121948580Y-85578934D01*
X121948580Y-85578934D02*
X122043819Y-85578934D01*
X121043819Y-84912268D02*
X121043819Y-84817030D01*
X121043819Y-84817030D02*
X121091438Y-84721792D01*
X121091438Y-84721792D02*
X121139057Y-84674173D01*
X121139057Y-84674173D02*
X121234295Y-84626554D01*
X121234295Y-84626554D02*
X121424771Y-84578935D01*
X121424771Y-84578935D02*
X121662866Y-84578935D01*
X121662866Y-84578935D02*
X121853342Y-84626554D01*
X121853342Y-84626554D02*
X121948580Y-84674173D01*
X121948580Y-84674173D02*
X121996200Y-84721792D01*
X121996200Y-84721792D02*
X122043819Y-84817030D01*
X122043819Y-84817030D02*
X122043819Y-84912268D01*
X122043819Y-84912268D02*
X121996200Y-85007506D01*
X121996200Y-85007506D02*
X121948580Y-85055125D01*
X121948580Y-85055125D02*
X121853342Y-85102744D01*
X121853342Y-85102744D02*
X121662866Y-85150363D01*
X121662866Y-85150363D02*
X121424771Y-85150363D01*
X121424771Y-85150363D02*
X121234295Y-85102744D01*
X121234295Y-85102744D02*
X121139057Y-85055125D01*
X121139057Y-85055125D02*
X121091438Y-85007506D01*
X121091438Y-85007506D02*
X121043819Y-84912268D01*
X121948580Y-84150363D02*
X121996200Y-84102744D01*
X121996200Y-84102744D02*
X122043819Y-84150363D01*
X122043819Y-84150363D02*
X121996200Y-84197982D01*
X121996200Y-84197982D02*
X121948580Y-84150363D01*
X121948580Y-84150363D02*
X122043819Y-84150363D01*
X121043819Y-83483697D02*
X121043819Y-83388459D01*
X121043819Y-83388459D02*
X121091438Y-83293221D01*
X121091438Y-83293221D02*
X121139057Y-83245602D01*
X121139057Y-83245602D02*
X121234295Y-83197983D01*
X121234295Y-83197983D02*
X121424771Y-83150364D01*
X121424771Y-83150364D02*
X121662866Y-83150364D01*
X121662866Y-83150364D02*
X121853342Y-83197983D01*
X121853342Y-83197983D02*
X121948580Y-83245602D01*
X121948580Y-83245602D02*
X121996200Y-83293221D01*
X121996200Y-83293221D02*
X122043819Y-83388459D01*
X122043819Y-83388459D02*
X122043819Y-83483697D01*
X122043819Y-83483697D02*
X121996200Y-83578935D01*
X121996200Y-83578935D02*
X121948580Y-83626554D01*
X121948580Y-83626554D02*
X121853342Y-83674173D01*
X121853342Y-83674173D02*
X121662866Y-83721792D01*
X121662866Y-83721792D02*
X121424771Y-83721792D01*
X121424771Y-83721792D02*
X121234295Y-83674173D01*
X121234295Y-83674173D02*
X121139057Y-83626554D01*
X121139057Y-83626554D02*
X121091438Y-83578935D01*
X121091438Y-83578935D02*
X121043819Y-83483697D01*
X121662866Y-82721792D02*
X121662866Y-81959888D01*
X121043819Y-81578935D02*
X121043819Y-80912269D01*
X121043819Y-80912269D02*
X122043819Y-81340840D01*
X121662866Y-80531316D02*
X121662866Y-79769412D01*
X121377152Y-78864650D02*
X122186676Y-78864650D01*
X122186676Y-78864650D02*
X122281914Y-78912269D01*
X122281914Y-78912269D02*
X122329533Y-78959888D01*
X122329533Y-78959888D02*
X122377152Y-79055126D01*
X122377152Y-79055126D02*
X122377152Y-79197983D01*
X122377152Y-79197983D02*
X122329533Y-79293221D01*
X121996200Y-78864650D02*
X122043819Y-78959888D01*
X122043819Y-78959888D02*
X122043819Y-79150364D01*
X122043819Y-79150364D02*
X121996200Y-79245602D01*
X121996200Y-79245602D02*
X121948580Y-79293221D01*
X121948580Y-79293221D02*
X121853342Y-79340840D01*
X121853342Y-79340840D02*
X121567628Y-79340840D01*
X121567628Y-79340840D02*
X121472390Y-79293221D01*
X121472390Y-79293221D02*
X121424771Y-79245602D01*
X121424771Y-79245602D02*
X121377152Y-79150364D01*
X121377152Y-79150364D02*
X121377152Y-78959888D01*
X121377152Y-78959888D02*
X121424771Y-78864650D01*
X121043819Y-78483697D02*
X121043819Y-77864650D01*
X121043819Y-77864650D02*
X121424771Y-78197983D01*
X121424771Y-78197983D02*
X121424771Y-78055126D01*
X121424771Y-78055126D02*
X121472390Y-77959888D01*
X121472390Y-77959888D02*
X121520009Y-77912269D01*
X121520009Y-77912269D02*
X121615247Y-77864650D01*
X121615247Y-77864650D02*
X121853342Y-77864650D01*
X121853342Y-77864650D02*
X121948580Y-77912269D01*
X121948580Y-77912269D02*
X121996200Y-77959888D01*
X121996200Y-77959888D02*
X122043819Y-78055126D01*
X122043819Y-78055126D02*
X122043819Y-78340840D01*
X122043819Y-78340840D02*
X121996200Y-78436078D01*
X121996200Y-78436078D02*
X121948580Y-78483697D01*
X122043819Y-77007507D02*
X121043819Y-77007507D01*
X121996200Y-77007507D02*
X122043819Y-77102745D01*
X122043819Y-77102745D02*
X122043819Y-77293221D01*
X122043819Y-77293221D02*
X121996200Y-77388459D01*
X121996200Y-77388459D02*
X121948580Y-77436078D01*
X121948580Y-77436078D02*
X121853342Y-77483697D01*
X121853342Y-77483697D02*
X121567628Y-77483697D01*
X121567628Y-77483697D02*
X121472390Y-77436078D01*
X121472390Y-77436078D02*
X121424771Y-77388459D01*
X121424771Y-77388459D02*
X121377152Y-77293221D01*
X121377152Y-77293221D02*
X121377152Y-77102745D01*
X121377152Y-77102745D02*
X121424771Y-77007507D01*
X121043819Y-76102745D02*
X121043819Y-76293221D01*
X121043819Y-76293221D02*
X121091438Y-76388459D01*
X121091438Y-76388459D02*
X121139057Y-76436078D01*
X121139057Y-76436078D02*
X121281914Y-76531316D01*
X121281914Y-76531316D02*
X121472390Y-76578935D01*
X121472390Y-76578935D02*
X121853342Y-76578935D01*
X121853342Y-76578935D02*
X121948580Y-76531316D01*
X121948580Y-76531316D02*
X121996200Y-76483697D01*
X121996200Y-76483697D02*
X122043819Y-76388459D01*
X122043819Y-76388459D02*
X122043819Y-76197983D01*
X122043819Y-76197983D02*
X121996200Y-76102745D01*
X121996200Y-76102745D02*
X121948580Y-76055126D01*
X121948580Y-76055126D02*
X121853342Y-76007507D01*
X121853342Y-76007507D02*
X121615247Y-76007507D01*
X121615247Y-76007507D02*
X121520009Y-76055126D01*
X121520009Y-76055126D02*
X121472390Y-76102745D01*
X121472390Y-76102745D02*
X121424771Y-76197983D01*
X121424771Y-76197983D02*
X121424771Y-76388459D01*
X121424771Y-76388459D02*
X121472390Y-76483697D01*
X121472390Y-76483697D02*
X121520009Y-76531316D01*
X121520009Y-76531316D02*
X121615247Y-76578935D01*
X121377152Y-75721792D02*
X121377152Y-75340840D01*
X122043819Y-75578935D02*
X121186676Y-75578935D01*
X121186676Y-75578935D02*
X121091438Y-75531316D01*
X121091438Y-75531316D02*
X121043819Y-75436078D01*
X121043819Y-75436078D02*
X121043819Y-75340840D01*
X121043819Y-74817030D02*
X121043819Y-74721792D01*
X121043819Y-74721792D02*
X121091438Y-74626554D01*
X121091438Y-74626554D02*
X121139057Y-74578935D01*
X121139057Y-74578935D02*
X121234295Y-74531316D01*
X121234295Y-74531316D02*
X121424771Y-74483697D01*
X121424771Y-74483697D02*
X121662866Y-74483697D01*
X121662866Y-74483697D02*
X121853342Y-74531316D01*
X121853342Y-74531316D02*
X121948580Y-74578935D01*
X121948580Y-74578935D02*
X121996200Y-74626554D01*
X121996200Y-74626554D02*
X122043819Y-74721792D01*
X122043819Y-74721792D02*
X122043819Y-74817030D01*
X122043819Y-74817030D02*
X121996200Y-74912268D01*
X121996200Y-74912268D02*
X121948580Y-74959887D01*
X121948580Y-74959887D02*
X121853342Y-75007506D01*
X121853342Y-75007506D02*
X121662866Y-75055125D01*
X121662866Y-75055125D02*
X121424771Y-75055125D01*
X121424771Y-75055125D02*
X121234295Y-75007506D01*
X121234295Y-75007506D02*
X121139057Y-74959887D01*
X121139057Y-74959887D02*
X121091438Y-74912268D01*
X121091438Y-74912268D02*
X121043819Y-74817030D01*
X122043819Y-74055125D02*
X121043819Y-74055125D01*
X121424771Y-74055125D02*
X121377152Y-73959887D01*
X121377152Y-73959887D02*
X121377152Y-73769411D01*
X121377152Y-73769411D02*
X121424771Y-73674173D01*
X121424771Y-73674173D02*
X121472390Y-73626554D01*
X121472390Y-73626554D02*
X121567628Y-73578935D01*
X121567628Y-73578935D02*
X121853342Y-73578935D01*
X121853342Y-73578935D02*
X121948580Y-73626554D01*
X121948580Y-73626554D02*
X121996200Y-73674173D01*
X121996200Y-73674173D02*
X122043819Y-73769411D01*
X122043819Y-73769411D02*
X122043819Y-73959887D01*
X122043819Y-73959887D02*
X121996200Y-74055125D01*
X121043819Y-72959887D02*
X121043819Y-72864649D01*
X121043819Y-72864649D02*
X121091438Y-72769411D01*
X121091438Y-72769411D02*
X121139057Y-72721792D01*
X121139057Y-72721792D02*
X121234295Y-72674173D01*
X121234295Y-72674173D02*
X121424771Y-72626554D01*
X121424771Y-72626554D02*
X121662866Y-72626554D01*
X121662866Y-72626554D02*
X121853342Y-72674173D01*
X121853342Y-72674173D02*
X121948580Y-72721792D01*
X121948580Y-72721792D02*
X121996200Y-72769411D01*
X121996200Y-72769411D02*
X122043819Y-72864649D01*
X122043819Y-72864649D02*
X122043819Y-72959887D01*
X122043819Y-72959887D02*
X121996200Y-73055125D01*
X121996200Y-73055125D02*
X121948580Y-73102744D01*
X121948580Y-73102744D02*
X121853342Y-73150363D01*
X121853342Y-73150363D02*
X121662866Y-73197982D01*
X121662866Y-73197982D02*
X121424771Y-73197982D01*
X121424771Y-73197982D02*
X121234295Y-73150363D01*
X121234295Y-73150363D02*
X121139057Y-73102744D01*
X121139057Y-73102744D02*
X121091438Y-73055125D01*
X121091438Y-73055125D02*
X121043819Y-72959887D01*
X77505160Y-59004200D02*
X77648017Y-59051819D01*
X77648017Y-59051819D02*
X77886112Y-59051819D01*
X77886112Y-59051819D02*
X77981350Y-59004200D01*
X77981350Y-59004200D02*
X78028969Y-58956580D01*
X78028969Y-58956580D02*
X78076588Y-58861342D01*
X78076588Y-58861342D02*
X78076588Y-58766104D01*
X78076588Y-58766104D02*
X78028969Y-58670866D01*
X78028969Y-58670866D02*
X77981350Y-58623247D01*
X77981350Y-58623247D02*
X77886112Y-58575628D01*
X77886112Y-58575628D02*
X77695636Y-58528009D01*
X77695636Y-58528009D02*
X77600398Y-58480390D01*
X77600398Y-58480390D02*
X77552779Y-58432771D01*
X77552779Y-58432771D02*
X77505160Y-58337533D01*
X77505160Y-58337533D02*
X77505160Y-58242295D01*
X77505160Y-58242295D02*
X77552779Y-58147057D01*
X77552779Y-58147057D02*
X77600398Y-58099438D01*
X77600398Y-58099438D02*
X77695636Y-58051819D01*
X77695636Y-58051819D02*
X77933731Y-58051819D01*
X77933731Y-58051819D02*
X78076588Y-58099438D01*
X79076588Y-58956580D02*
X79028969Y-59004200D01*
X79028969Y-59004200D02*
X78886112Y-59051819D01*
X78886112Y-59051819D02*
X78790874Y-59051819D01*
X78790874Y-59051819D02*
X78648017Y-59004200D01*
X78648017Y-59004200D02*
X78552779Y-58908961D01*
X78552779Y-58908961D02*
X78505160Y-58813723D01*
X78505160Y-58813723D02*
X78457541Y-58623247D01*
X78457541Y-58623247D02*
X78457541Y-58480390D01*
X78457541Y-58480390D02*
X78505160Y-58289914D01*
X78505160Y-58289914D02*
X78552779Y-58194676D01*
X78552779Y-58194676D02*
X78648017Y-58099438D01*
X78648017Y-58099438D02*
X78790874Y-58051819D01*
X78790874Y-58051819D02*
X78886112Y-58051819D01*
X78886112Y-58051819D02*
X79028969Y-58099438D01*
X79028969Y-58099438D02*
X79076588Y-58147057D01*
X79981350Y-59051819D02*
X79505160Y-59051819D01*
X79505160Y-59051819D02*
X79505160Y-58051819D01*
X102952779Y-99437819D02*
X102952779Y-98437819D01*
X102952779Y-98818771D02*
X103048017Y-98771152D01*
X103048017Y-98771152D02*
X103238493Y-98771152D01*
X103238493Y-98771152D02*
X103333731Y-98818771D01*
X103333731Y-98818771D02*
X103381350Y-98866390D01*
X103381350Y-98866390D02*
X103428969Y-98961628D01*
X103428969Y-98961628D02*
X103428969Y-99247342D01*
X103428969Y-99247342D02*
X103381350Y-99342580D01*
X103381350Y-99342580D02*
X103333731Y-99390200D01*
X103333731Y-99390200D02*
X103238493Y-99437819D01*
X103238493Y-99437819D02*
X103048017Y-99437819D01*
X103048017Y-99437819D02*
X102952779Y-99390200D01*
X104286112Y-99437819D02*
X104286112Y-98914009D01*
X104286112Y-98914009D02*
X104238493Y-98818771D01*
X104238493Y-98818771D02*
X104143255Y-98771152D01*
X104143255Y-98771152D02*
X103952779Y-98771152D01*
X103952779Y-98771152D02*
X103857541Y-98818771D01*
X104286112Y-99390200D02*
X104190874Y-99437819D01*
X104190874Y-99437819D02*
X103952779Y-99437819D01*
X103952779Y-99437819D02*
X103857541Y-99390200D01*
X103857541Y-99390200D02*
X103809922Y-99294961D01*
X103809922Y-99294961D02*
X103809922Y-99199723D01*
X103809922Y-99199723D02*
X103857541Y-99104485D01*
X103857541Y-99104485D02*
X103952779Y-99056866D01*
X103952779Y-99056866D02*
X104190874Y-99056866D01*
X104190874Y-99056866D02*
X104286112Y-99009247D01*
X105190874Y-99390200D02*
X105095636Y-99437819D01*
X105095636Y-99437819D02*
X104905160Y-99437819D01*
X104905160Y-99437819D02*
X104809922Y-99390200D01*
X104809922Y-99390200D02*
X104762303Y-99342580D01*
X104762303Y-99342580D02*
X104714684Y-99247342D01*
X104714684Y-99247342D02*
X104714684Y-98961628D01*
X104714684Y-98961628D02*
X104762303Y-98866390D01*
X104762303Y-98866390D02*
X104809922Y-98818771D01*
X104809922Y-98818771D02*
X104905160Y-98771152D01*
X104905160Y-98771152D02*
X105095636Y-98771152D01*
X105095636Y-98771152D02*
X105190874Y-98818771D01*
X105619446Y-99437819D02*
X105619446Y-98437819D01*
X105714684Y-99056866D02*
X106000398Y-99437819D01*
X106000398Y-98771152D02*
X105619446Y-99152104D01*
X106428970Y-98771152D02*
X106428970Y-99771152D01*
X106428970Y-98818771D02*
X106524208Y-98771152D01*
X106524208Y-98771152D02*
X106714684Y-98771152D01*
X106714684Y-98771152D02*
X106809922Y-98818771D01*
X106809922Y-98818771D02*
X106857541Y-98866390D01*
X106857541Y-98866390D02*
X106905160Y-98961628D01*
X106905160Y-98961628D02*
X106905160Y-99247342D01*
X106905160Y-99247342D02*
X106857541Y-99342580D01*
X106857541Y-99342580D02*
X106809922Y-99390200D01*
X106809922Y-99390200D02*
X106714684Y-99437819D01*
X106714684Y-99437819D02*
X106524208Y-99437819D01*
X106524208Y-99437819D02*
X106428970Y-99390200D01*
X107476589Y-99437819D02*
X107381351Y-99390200D01*
X107381351Y-99390200D02*
X107333732Y-99294961D01*
X107333732Y-99294961D02*
X107333732Y-98437819D01*
X108286113Y-99437819D02*
X108286113Y-98914009D01*
X108286113Y-98914009D02*
X108238494Y-98818771D01*
X108238494Y-98818771D02*
X108143256Y-98771152D01*
X108143256Y-98771152D02*
X107952780Y-98771152D01*
X107952780Y-98771152D02*
X107857542Y-98818771D01*
X108286113Y-99390200D02*
X108190875Y-99437819D01*
X108190875Y-99437819D02*
X107952780Y-99437819D01*
X107952780Y-99437819D02*
X107857542Y-99390200D01*
X107857542Y-99390200D02*
X107809923Y-99294961D01*
X107809923Y-99294961D02*
X107809923Y-99199723D01*
X107809923Y-99199723D02*
X107857542Y-99104485D01*
X107857542Y-99104485D02*
X107952780Y-99056866D01*
X107952780Y-99056866D02*
X108190875Y-99056866D01*
X108190875Y-99056866D02*
X108286113Y-99009247D01*
X108762304Y-98771152D02*
X108762304Y-99437819D01*
X108762304Y-98866390D02*
X108809923Y-98818771D01*
X108809923Y-98818771D02*
X108905161Y-98771152D01*
X108905161Y-98771152D02*
X109048018Y-98771152D01*
X109048018Y-98771152D02*
X109143256Y-98818771D01*
X109143256Y-98818771D02*
X109190875Y-98914009D01*
X109190875Y-98914009D02*
X109190875Y-99437819D01*
X110048018Y-99390200D02*
X109952780Y-99437819D01*
X109952780Y-99437819D02*
X109762304Y-99437819D01*
X109762304Y-99437819D02*
X109667066Y-99390200D01*
X109667066Y-99390200D02*
X109619447Y-99294961D01*
X109619447Y-99294961D02*
X109619447Y-98914009D01*
X109619447Y-98914009D02*
X109667066Y-98818771D01*
X109667066Y-98818771D02*
X109762304Y-98771152D01*
X109762304Y-98771152D02*
X109952780Y-98771152D01*
X109952780Y-98771152D02*
X110048018Y-98818771D01*
X110048018Y-98818771D02*
X110095637Y-98914009D01*
X110095637Y-98914009D02*
X110095637Y-99009247D01*
X110095637Y-99009247D02*
X109619447Y-99104485D01*
D11*
%TO.C,JP4*%
X98310000Y-99360000D02*
X98310000Y-98760000D01*
X99010000Y-98060000D02*
X100410000Y-98060000D01*
X100410000Y-100060000D02*
X99010000Y-100060000D01*
X101110000Y-98760000D02*
X101110000Y-99360000D01*
X98310000Y-98760000D02*
G75*
G02*
X99010000Y-98060000I700000J0D01*
G01*
X99010000Y-100060000D02*
G75*
G02*
X98310000Y-99360000I0J700000D01*
G01*
X100410000Y-98060000D02*
G75*
G02*
X101110000Y-98760000I1J-699999D01*
G01*
X101110000Y-99360000D02*
G75*
G02*
X100410000Y-100060000I-699999J-1D01*
G01*
D12*
%TO.C,J1*%
X72863000Y-52810000D02*
X72863000Y-56410000D01*
X77113000Y-51610000D02*
X74838000Y-51610000D01*
X77113000Y-52410000D02*
X77113000Y-51610000D01*
X77113000Y-56810000D02*
X77113000Y-57610000D01*
X77113000Y-57610000D02*
X74838000Y-57610000D01*
D13*
X77923000Y-52160000D02*
G75*
G02*
X77723000Y-52160000I-100000J0D01*
G01*
X77723000Y-52160000D02*
G75*
G02*
X77923000Y-52160000I100000J0D01*
G01*
D11*
%TO.C,JP6*%
X113520000Y-99360000D02*
X113520000Y-98760000D01*
X114220000Y-98060000D02*
X115620000Y-98060000D01*
X115620000Y-100060000D02*
X114220000Y-100060000D01*
X116320000Y-98760000D02*
X116320000Y-99360000D01*
X113520000Y-98760000D02*
G75*
G02*
X114220000Y-98060000I699999J1D01*
G01*
X114220000Y-100060000D02*
G75*
G02*
X113520000Y-99360000I-1J699999D01*
G01*
X115620000Y-98060000D02*
G75*
G02*
X116320000Y-98760000I0J-700000D01*
G01*
X116320000Y-99360000D02*
G75*
G02*
X115620000Y-100060000I-700000J0D01*
G01*
%TO.C,JP3*%
X94470000Y-99360000D02*
X94470000Y-98760000D01*
X95170000Y-98060000D02*
X96570000Y-98060000D01*
X96570000Y-100060000D02*
X95170000Y-100060000D01*
X97270000Y-98760000D02*
X97270000Y-99360000D01*
X94470000Y-98760000D02*
G75*
G02*
X95170000Y-98060000I699999J1D01*
G01*
X95170000Y-100060000D02*
G75*
G02*
X94470000Y-99360000I-1J699999D01*
G01*
X96570000Y-98060000D02*
G75*
G02*
X97270000Y-98760000I0J-700000D01*
G01*
X97270000Y-99360000D02*
G75*
G02*
X96570000Y-100060000I-700000J0D01*
G01*
%TO.C,JP5*%
X120920000Y-92760000D02*
X120920000Y-91360000D01*
X121620000Y-90660000D02*
X122220000Y-90660000D01*
X122220000Y-93460000D02*
X121620000Y-93460000D01*
X122920000Y-91360000D02*
X122920000Y-92760000D01*
X120920000Y-91360000D02*
G75*
G02*
X121620000Y-90660000I700000J0D01*
G01*
X121620000Y-93460000D02*
G75*
G02*
X120920000Y-92760000I-1J699999D01*
G01*
X122220000Y-90660000D02*
G75*
G02*
X122920000Y-91360000I0J-700000D01*
G01*
X122920000Y-92760000D02*
G75*
G02*
X122220000Y-93460000I-699999J-1D01*
G01*
%TO.C,JP1*%
X79260000Y-99360000D02*
X79260000Y-98760000D01*
X79960000Y-98060000D02*
X81360000Y-98060000D01*
X81360000Y-100060000D02*
X79960000Y-100060000D01*
X82060000Y-98760000D02*
X82060000Y-99360000D01*
X79260000Y-98760000D02*
G75*
G02*
X79960000Y-98060000I700000J0D01*
G01*
X79960000Y-100060000D02*
G75*
G02*
X79260000Y-99360000I0J700000D01*
G01*
X81360000Y-98060000D02*
G75*
G02*
X82060000Y-98760000I1J-699999D01*
G01*
X82060000Y-99360000D02*
G75*
G02*
X81360000Y-100060000I-699999J-1D01*
G01*
%TO.C,JP2*%
X72660000Y-92760000D02*
X72660000Y-91360000D01*
X73360000Y-90660000D02*
X73960000Y-90660000D01*
X73960000Y-93460000D02*
X73360000Y-93460000D01*
X74660000Y-91360000D02*
X74660000Y-92760000D01*
X72660000Y-91360000D02*
G75*
G02*
X73360000Y-90660000I700000J0D01*
G01*
X73360000Y-93460000D02*
G75*
G02*
X72660000Y-92760000I-1J699999D01*
G01*
X73960000Y-90660000D02*
G75*
G02*
X74660000Y-91360000I0J-700000D01*
G01*
X74660000Y-92760000D02*
G75*
G02*
X73960000Y-93460000I-699999J-1D01*
G01*
%TD*%
M02*
