%TF.GenerationSoftware,KiCad,Pcbnew,8.0.8*%
%TF.CreationDate,2025-08-24T09:26:36-04:00*%
%TF.ProjectId,project-protoboard,70726f6a-6563-4742-9d70-726f746f626f,rev?*%
%TF.SameCoordinates,Original*%
%TF.FileFunction,Paste,Top*%
%TF.FilePolarity,Positive*%
%FSLAX46Y46*%
G04 Gerber Fmt 4.6, Leading zero omitted, Abs format (unit mm)*
G04 Created by KiCad (PCBNEW 8.0.8) date 2025-08-24 09:26:36*
%MOMM*%
%LPD*%
G01*
G04 APERTURE LIST*
G04 Aperture macros list*
%AMRoundRect*
0 Rectangle with rounded corners*
0 $1 Rounding radius*
0 $2 $3 $4 $5 $6 $7 $8 $9 X,Y pos of 4 corners*
0 Add a 4 corners polygon primitive as box body*
4,1,4,$2,$3,$4,$5,$6,$7,$8,$9,$2,$3,0*
0 Add four circle primitives for the rounded corners*
1,1,$1+$1,$2,$3*
1,1,$1+$1,$4,$5*
1,1,$1+$1,$6,$7*
1,1,$1+$1,$8,$9*
0 Add four rect primitives between the rounded corners*
20,1,$1+$1,$2,$3,$4,$5,0*
20,1,$1+$1,$4,$5,$6,$7,0*
20,1,$1+$1,$6,$7,$8,$9,0*
20,1,$1+$1,$8,$9,$2,$3,0*%
G04 Aperture macros list end*
%ADD10RoundRect,0.475000X-0.475000X0.475000X-0.475000X-0.475000X0.475000X-0.475000X0.475000X0.475000X0*%
%ADD11RoundRect,0.475000X-0.475000X-0.475000X0.475000X-0.475000X0.475000X0.475000X-0.475000X0.475000X0*%
%ADD12RoundRect,0.475000X0.475000X0.475000X-0.475000X0.475000X-0.475000X-0.475000X0.475000X-0.475000X0*%
%ADD13R,1.550000X0.600000*%
%ADD14R,1.800000X1.200000*%
G04 APERTURE END LIST*
D10*
%TO.C,J9*%
X81280000Y-27940000D03*
X83820000Y-27940000D03*
X86360000Y-27940000D03*
X88900000Y-27940000D03*
X91440000Y-27940000D03*
X93980000Y-27940000D03*
%TD*%
D11*
%TO.C,J37*%
X96520000Y-96520000D03*
X96520000Y-93980000D03*
X96520000Y-91440000D03*
X96520000Y-88900000D03*
X96520000Y-86360000D03*
X96520000Y-83820000D03*
X96520000Y-81280000D03*
X96520000Y-78740000D03*
X96520000Y-76200000D03*
X96520000Y-73660000D03*
X96520000Y-71120000D03*
X96520000Y-68580000D03*
X96520000Y-66040000D03*
X96520000Y-63500000D03*
X96520000Y-60960000D03*
X96520000Y-58420000D03*
X96520000Y-55880000D03*
X96520000Y-53340000D03*
X96520000Y-50800000D03*
X96520000Y-48260000D03*
X96520000Y-45720000D03*
X96520000Y-43180000D03*
X96520000Y-40640000D03*
X96520000Y-38100000D03*
X96520000Y-35560000D03*
X96520000Y-33020000D03*
X96520000Y-30480000D03*
X96520000Y-27940000D03*
X96520000Y-25400000D03*
X96520000Y-22860000D03*
%TD*%
D12*
%TO.C,J70*%
X116840000Y-27940000D03*
X116840000Y-30480000D03*
X116840000Y-33020000D03*
X116840000Y-35560000D03*
X116840000Y-38100000D03*
X116840000Y-40640000D03*
X116840000Y-43180000D03*
X116840000Y-45720000D03*
X116840000Y-48260000D03*
X116840000Y-50800000D03*
X116840000Y-53340000D03*
X116840000Y-55880000D03*
X116840000Y-58420000D03*
X116840000Y-60960000D03*
X116840000Y-63500000D03*
X116840000Y-66040000D03*
X116840000Y-68580000D03*
X116840000Y-71120000D03*
X116840000Y-73660000D03*
X116840000Y-76200000D03*
X116840000Y-78740000D03*
X116840000Y-81280000D03*
X116840000Y-83820000D03*
X116840000Y-86360000D03*
X116840000Y-88900000D03*
X116840000Y-91440000D03*
%TD*%
D10*
%TO.C,J59*%
X101600000Y-73660000D03*
X104140000Y-73660000D03*
X106680000Y-73660000D03*
X109220000Y-73660000D03*
X111760000Y-73660000D03*
X114300000Y-73660000D03*
%TD*%
%TO.C,J24*%
X81280000Y-66040000D03*
X83820000Y-66040000D03*
X86360000Y-66040000D03*
X88900000Y-66040000D03*
X91440000Y-66040000D03*
X93980000Y-66040000D03*
%TD*%
D12*
%TO.C,J69*%
X119380000Y-27940000D03*
X119380000Y-30480000D03*
X119380000Y-33020000D03*
X119380000Y-35560000D03*
X119380000Y-38100000D03*
X119380000Y-40640000D03*
X119380000Y-43180000D03*
X119380000Y-45720000D03*
X119380000Y-48260000D03*
X119380000Y-50800000D03*
X119380000Y-53340000D03*
X119380000Y-55880000D03*
X119380000Y-58420000D03*
X119380000Y-60960000D03*
X119380000Y-63500000D03*
X119380000Y-66040000D03*
X119380000Y-68580000D03*
X119380000Y-71120000D03*
X119380000Y-73660000D03*
X119380000Y-76200000D03*
X119380000Y-78740000D03*
X119380000Y-81280000D03*
X119380000Y-83820000D03*
X119380000Y-86360000D03*
X119380000Y-88900000D03*
X119380000Y-91440000D03*
%TD*%
D10*
%TO.C,J44*%
X101600000Y-35560000D03*
X104140000Y-35560000D03*
X106680000Y-35560000D03*
X109220000Y-35560000D03*
X111760000Y-35560000D03*
X114300000Y-35560000D03*
%TD*%
%TO.C,J35*%
X81280000Y-93980000D03*
X83820000Y-93980000D03*
X86360000Y-93980000D03*
X88900000Y-93980000D03*
X91440000Y-93980000D03*
X93980000Y-93980000D03*
%TD*%
%TO.C,J17*%
X81280000Y-48260000D03*
X83820000Y-48260000D03*
X86360000Y-48260000D03*
X88900000Y-48260000D03*
X91440000Y-48260000D03*
X93980000Y-48260000D03*
%TD*%
D12*
%TO.C,J5*%
X76200000Y-27940000D03*
X76200000Y-30480000D03*
X76200000Y-33020000D03*
X76200000Y-35560000D03*
X76200000Y-38100000D03*
X76200000Y-40640000D03*
X76200000Y-43180000D03*
X76200000Y-45720000D03*
X76200000Y-48260000D03*
%TD*%
D10*
%TO.C,J30*%
X81280000Y-81280000D03*
X83820000Y-81280000D03*
X86360000Y-81280000D03*
X88900000Y-81280000D03*
X91440000Y-81280000D03*
X93980000Y-81280000D03*
%TD*%
%TO.C,J66*%
X101600000Y-91440000D03*
X104140000Y-91440000D03*
X106680000Y-91440000D03*
X109220000Y-91440000D03*
X111760000Y-91440000D03*
X114300000Y-91440000D03*
%TD*%
%TO.C,J42*%
X101600000Y-30480000D03*
X104140000Y-30480000D03*
X106680000Y-30480000D03*
X109220000Y-30480000D03*
X111760000Y-30480000D03*
X114300000Y-30480000D03*
%TD*%
%TO.C,J55*%
X101600000Y-63500000D03*
X104140000Y-63500000D03*
X106680000Y-63500000D03*
X109220000Y-63500000D03*
X111760000Y-63500000D03*
X114300000Y-63500000D03*
%TD*%
%TO.C,J13*%
X81280000Y-38100000D03*
X83820000Y-38100000D03*
X86360000Y-38100000D03*
X88900000Y-38100000D03*
X91440000Y-38100000D03*
X93980000Y-38100000D03*
%TD*%
%TO.C,J36*%
X81280000Y-96520000D03*
X83820000Y-96520000D03*
X86360000Y-96520000D03*
X88900000Y-96520000D03*
X91440000Y-96520000D03*
X93980000Y-96520000D03*
%TD*%
%TO.C,J39*%
X101600000Y-22860000D03*
X104140000Y-22860000D03*
X106680000Y-22860000D03*
X109220000Y-22860000D03*
X111760000Y-22860000D03*
X114300000Y-22860000D03*
%TD*%
D13*
%TO.C,J1*%
X77438000Y-53110000D03*
X77438000Y-54110000D03*
X77438000Y-55110000D03*
X77438000Y-56110000D03*
D14*
X73563000Y-51810000D03*
X73563000Y-57410000D03*
%TD*%
D10*
%TO.C,J45*%
X101600000Y-38100000D03*
X104140000Y-38100000D03*
X106680000Y-38100000D03*
X109220000Y-38100000D03*
X111760000Y-38100000D03*
X114300000Y-38100000D03*
%TD*%
D12*
%TO.C,J3*%
X78740000Y-27940000D03*
X78740000Y-30480000D03*
X78740000Y-33020000D03*
X78740000Y-35560000D03*
X78740000Y-38100000D03*
X78740000Y-40640000D03*
X78740000Y-43180000D03*
X78740000Y-45720000D03*
X78740000Y-48260000D03*
%TD*%
D10*
%TO.C,J61*%
X101600000Y-78740000D03*
X104140000Y-78740000D03*
X106680000Y-78740000D03*
X109220000Y-78740000D03*
X111760000Y-78740000D03*
X114300000Y-78740000D03*
%TD*%
%TO.C,J53*%
X101600000Y-58420000D03*
X104140000Y-58420000D03*
X106680000Y-58420000D03*
X109220000Y-58420000D03*
X111760000Y-58420000D03*
X114300000Y-58420000D03*
%TD*%
%TO.C,J8*%
X81280000Y-25400000D03*
X83820000Y-25400000D03*
X86360000Y-25400000D03*
X88900000Y-25400000D03*
X91440000Y-25400000D03*
X93980000Y-25400000D03*
%TD*%
%TO.C,J56*%
X101600000Y-66040000D03*
X104140000Y-66040000D03*
X106680000Y-66040000D03*
X109220000Y-66040000D03*
X111760000Y-66040000D03*
X114300000Y-66040000D03*
%TD*%
D11*
%TO.C,J38*%
X99060000Y-96520000D03*
X99060000Y-93980000D03*
X99060000Y-91440000D03*
X99060000Y-88900000D03*
X99060000Y-86360000D03*
X99060000Y-83820000D03*
X99060000Y-81280000D03*
X99060000Y-78740000D03*
X99060000Y-76200000D03*
X99060000Y-73660000D03*
X99060000Y-71120000D03*
X99060000Y-68580000D03*
X99060000Y-66040000D03*
X99060000Y-63500000D03*
X99060000Y-60960000D03*
X99060000Y-58420000D03*
X99060000Y-55880000D03*
X99060000Y-53340000D03*
X99060000Y-50800000D03*
X99060000Y-48260000D03*
X99060000Y-45720000D03*
X99060000Y-43180000D03*
X99060000Y-40640000D03*
X99060000Y-38100000D03*
X99060000Y-35560000D03*
X99060000Y-33020000D03*
X99060000Y-30480000D03*
X99060000Y-27940000D03*
X99060000Y-25400000D03*
X99060000Y-22860000D03*
%TD*%
D10*
%TO.C,J12*%
X81280000Y-35560000D03*
X83820000Y-35560000D03*
X86360000Y-35560000D03*
X88900000Y-35560000D03*
X91440000Y-35560000D03*
X93980000Y-35560000D03*
%TD*%
%TO.C,J15*%
X81280000Y-43180000D03*
X83820000Y-43180000D03*
X86360000Y-43180000D03*
X88900000Y-43180000D03*
X91440000Y-43180000D03*
X93980000Y-43180000D03*
%TD*%
%TO.C,J67*%
X101600000Y-93980000D03*
X104140000Y-93980000D03*
X106680000Y-93980000D03*
X109220000Y-93980000D03*
X111760000Y-93980000D03*
X114300000Y-93980000D03*
%TD*%
%TO.C,J28*%
X81280000Y-76200000D03*
X83820000Y-76200000D03*
X86360000Y-76200000D03*
X88900000Y-76200000D03*
X91440000Y-76200000D03*
X93980000Y-76200000D03*
%TD*%
%TO.C,J25*%
X81280000Y-68580000D03*
X83820000Y-68580000D03*
X86360000Y-68580000D03*
X88900000Y-68580000D03*
X91440000Y-68580000D03*
X93980000Y-68580000D03*
%TD*%
%TO.C,J41*%
X101600000Y-27940000D03*
X104140000Y-27940000D03*
X106680000Y-27940000D03*
X109220000Y-27940000D03*
X111760000Y-27940000D03*
X114300000Y-27940000D03*
%TD*%
%TO.C,J43*%
X101600000Y-33020000D03*
X104140000Y-33020000D03*
X106680000Y-33020000D03*
X109220000Y-33020000D03*
X111760000Y-33020000D03*
X114300000Y-33020000D03*
%TD*%
%TO.C,J47*%
X101600000Y-43180000D03*
X104140000Y-43180000D03*
X106680000Y-43180000D03*
X109220000Y-43180000D03*
X111760000Y-43180000D03*
X114300000Y-43180000D03*
%TD*%
%TO.C,J46*%
X101600000Y-40640000D03*
X104140000Y-40640000D03*
X106680000Y-40640000D03*
X109220000Y-40640000D03*
X111760000Y-40640000D03*
X114300000Y-40640000D03*
%TD*%
%TO.C,J11*%
X81280000Y-33020000D03*
X83820000Y-33020000D03*
X86360000Y-33020000D03*
X88900000Y-33020000D03*
X91440000Y-33020000D03*
X93980000Y-33020000D03*
%TD*%
%TO.C,J49*%
X101600000Y-48260000D03*
X104140000Y-48260000D03*
X106680000Y-48260000D03*
X109220000Y-48260000D03*
X111760000Y-48260000D03*
X114300000Y-48260000D03*
%TD*%
%TO.C,J57*%
X101600000Y-68580000D03*
X104140000Y-68580000D03*
X106680000Y-68580000D03*
X109220000Y-68580000D03*
X111760000Y-68580000D03*
X114300000Y-68580000D03*
%TD*%
%TO.C,J22*%
X81280000Y-60960000D03*
X83820000Y-60960000D03*
X86360000Y-60960000D03*
X88900000Y-60960000D03*
X91440000Y-60960000D03*
X93980000Y-60960000D03*
%TD*%
%TO.C,J31*%
X81280000Y-83820000D03*
X83820000Y-83820000D03*
X86360000Y-83820000D03*
X88900000Y-83820000D03*
X91440000Y-83820000D03*
X93980000Y-83820000D03*
%TD*%
%TO.C,J54*%
X101600000Y-60960000D03*
X104140000Y-60960000D03*
X106680000Y-60960000D03*
X109220000Y-60960000D03*
X111760000Y-60960000D03*
X114300000Y-60960000D03*
%TD*%
D12*
%TO.C,J2*%
X81280000Y-50800000D03*
X81280000Y-53340000D03*
X81280000Y-55880000D03*
X81280000Y-58420000D03*
%TD*%
D10*
%TO.C,J64*%
X101600000Y-86360000D03*
X104140000Y-86360000D03*
X106680000Y-86360000D03*
X109220000Y-86360000D03*
X111760000Y-86360000D03*
X114300000Y-86360000D03*
%TD*%
%TO.C,J29*%
X81280000Y-78740000D03*
X83820000Y-78740000D03*
X86360000Y-78740000D03*
X88900000Y-78740000D03*
X91440000Y-78740000D03*
X93980000Y-78740000D03*
%TD*%
%TO.C,J14*%
X81280000Y-40640000D03*
X83820000Y-40640000D03*
X86360000Y-40640000D03*
X88900000Y-40640000D03*
X91440000Y-40640000D03*
X93980000Y-40640000D03*
%TD*%
%TO.C,J68*%
X101600000Y-96520000D03*
X104140000Y-96520000D03*
X106680000Y-96520000D03*
X109220000Y-96520000D03*
X111760000Y-96520000D03*
X114300000Y-96520000D03*
%TD*%
%TO.C,J18*%
X83820000Y-50800000D03*
X86360000Y-50800000D03*
X88900000Y-50800000D03*
X91440000Y-50800000D03*
X93980000Y-50800000D03*
%TD*%
%TO.C,J34*%
X81280000Y-91440000D03*
X83820000Y-91440000D03*
X86360000Y-91440000D03*
X88900000Y-91440000D03*
X91440000Y-91440000D03*
X93980000Y-91440000D03*
%TD*%
%TO.C,J26*%
X81280000Y-71120000D03*
X83820000Y-71120000D03*
X86360000Y-71120000D03*
X88900000Y-71120000D03*
X91440000Y-71120000D03*
X93980000Y-71120000D03*
%TD*%
%TO.C,J33*%
X81280000Y-88900000D03*
X83820000Y-88900000D03*
X86360000Y-88900000D03*
X88900000Y-88900000D03*
X91440000Y-88900000D03*
X93980000Y-88900000D03*
%TD*%
%TO.C,J27*%
X81280000Y-73660000D03*
X83820000Y-73660000D03*
X86360000Y-73660000D03*
X88900000Y-73660000D03*
X91440000Y-73660000D03*
X93980000Y-73660000D03*
%TD*%
%TO.C,J16*%
X81280000Y-45720000D03*
X83820000Y-45720000D03*
X86360000Y-45720000D03*
X88900000Y-45720000D03*
X91440000Y-45720000D03*
X93980000Y-45720000D03*
%TD*%
%TO.C,J20*%
X83820000Y-55880000D03*
X86360000Y-55880000D03*
X88900000Y-55880000D03*
X91440000Y-55880000D03*
X93980000Y-55880000D03*
%TD*%
%TO.C,J48*%
X101600000Y-45720000D03*
X104140000Y-45720000D03*
X106680000Y-45720000D03*
X109220000Y-45720000D03*
X111760000Y-45720000D03*
X114300000Y-45720000D03*
%TD*%
%TO.C,J63*%
X101600000Y-83820000D03*
X104140000Y-83820000D03*
X106680000Y-83820000D03*
X109220000Y-83820000D03*
X111760000Y-83820000D03*
X114300000Y-83820000D03*
%TD*%
%TO.C,J62*%
X101600000Y-81280000D03*
X104140000Y-81280000D03*
X106680000Y-81280000D03*
X109220000Y-81280000D03*
X111760000Y-81280000D03*
X114300000Y-81280000D03*
%TD*%
%TO.C,J58*%
X101600000Y-71120000D03*
X104140000Y-71120000D03*
X106680000Y-71120000D03*
X109220000Y-71120000D03*
X111760000Y-71120000D03*
X114300000Y-71120000D03*
%TD*%
%TO.C,J32*%
X81280000Y-86360000D03*
X83820000Y-86360000D03*
X86360000Y-86360000D03*
X88900000Y-86360000D03*
X91440000Y-86360000D03*
X93980000Y-86360000D03*
%TD*%
%TO.C,J10*%
X81280000Y-30480000D03*
X83820000Y-30480000D03*
X86360000Y-30480000D03*
X88900000Y-30480000D03*
X91440000Y-30480000D03*
X93980000Y-30480000D03*
%TD*%
D12*
%TO.C,J4*%
X78740000Y-60960000D03*
X78740000Y-63500000D03*
X78740000Y-66040000D03*
X78740000Y-68580000D03*
X78740000Y-71120000D03*
X78740000Y-73660000D03*
X78740000Y-76200000D03*
X78740000Y-78740000D03*
X78740000Y-81280000D03*
X78740000Y-83820000D03*
X78740000Y-86360000D03*
X78740000Y-88900000D03*
X78740000Y-91440000D03*
%TD*%
D10*
%TO.C,J51*%
X101600000Y-53340000D03*
X104140000Y-53340000D03*
X106680000Y-53340000D03*
X109220000Y-53340000D03*
X111760000Y-53340000D03*
X114300000Y-53340000D03*
%TD*%
%TO.C,J7*%
X81280000Y-22860000D03*
X83820000Y-22860000D03*
X86360000Y-22860000D03*
X88900000Y-22860000D03*
X91440000Y-22860000D03*
X93980000Y-22860000D03*
%TD*%
%TO.C,J40*%
X101600000Y-25400000D03*
X104140000Y-25400000D03*
X106680000Y-25400000D03*
X109220000Y-25400000D03*
X111760000Y-25400000D03*
X114300000Y-25400000D03*
%TD*%
%TO.C,J21*%
X83820000Y-58420000D03*
X86360000Y-58420000D03*
X88900000Y-58420000D03*
X91440000Y-58420000D03*
X93980000Y-58420000D03*
%TD*%
%TO.C,J23*%
X81280000Y-63500000D03*
X83820000Y-63500000D03*
X86360000Y-63500000D03*
X88900000Y-63500000D03*
X91440000Y-63500000D03*
X93980000Y-63500000D03*
%TD*%
%TO.C,J52*%
X101600000Y-55880000D03*
X104140000Y-55880000D03*
X106680000Y-55880000D03*
X109220000Y-55880000D03*
X111760000Y-55880000D03*
X114300000Y-55880000D03*
%TD*%
%TO.C,J50*%
X101600000Y-50800000D03*
X104140000Y-50800000D03*
X106680000Y-50800000D03*
X109220000Y-50800000D03*
X111760000Y-50800000D03*
X114300000Y-50800000D03*
%TD*%
%TO.C,J65*%
X101600000Y-88900000D03*
X104140000Y-88900000D03*
X106680000Y-88900000D03*
X109220000Y-88900000D03*
X111760000Y-88900000D03*
X114300000Y-88900000D03*
%TD*%
D12*
%TO.C,J6*%
X76200000Y-60960000D03*
X76200000Y-63500000D03*
X76200000Y-66040000D03*
X76200000Y-68580000D03*
X76200000Y-71120000D03*
X76200000Y-73660000D03*
X76200000Y-76200000D03*
X76200000Y-78740000D03*
X76200000Y-81280000D03*
X76200000Y-83820000D03*
X76200000Y-86360000D03*
X76200000Y-88900000D03*
X76200000Y-91440000D03*
%TD*%
D10*
%TO.C,J19*%
X83820000Y-53340000D03*
X86360000Y-53340000D03*
X88900000Y-53340000D03*
X91440000Y-53340000D03*
X93980000Y-53340000D03*
%TD*%
%TO.C,J60*%
X101600000Y-76200000D03*
X104140000Y-76200000D03*
X106680000Y-76200000D03*
X109220000Y-76200000D03*
X111760000Y-76200000D03*
X114300000Y-76200000D03*
%TD*%
M02*
