%TF.GenerationSoftware,KiCad,Pcbnew,8.0.8*%
%TF.CreationDate,2025-08-24T09:26:36-04:00*%
%TF.ProjectId,project-protoboard,70726f6a-6563-4742-9d70-726f746f626f,rev?*%
%TF.SameCoordinates,Original*%
%TF.FileFunction,Copper,L2,Bot*%
%TF.FilePolarity,Positive*%
%FSLAX46Y46*%
G04 Gerber Fmt 4.6, Leading zero omitted, Abs format (unit mm)*
G04 Created by KiCad (PCBNEW 8.0.8) date 2025-08-24 09:26:36*
%MOMM*%
%LPD*%
G01*
G04 APERTURE LIST*
%TA.AperFunction,ComponentPad*%
%ADD10C,4.500000*%
%TD*%
%TA.AperFunction,ViaPad*%
%ADD11C,0.800000*%
%TD*%
G04 APERTURE END LIST*
D10*
%TO.P,H4,1,1*%
%TO.N,GND*%
X119380000Y-96520000D03*
%TD*%
%TO.P,H2,1,1*%
%TO.N,GND*%
X119380000Y-22860000D03*
%TD*%
%TO.P,H1,1,1*%
%TO.N,GND*%
X76200000Y-22860000D03*
%TD*%
%TO.P,H3,1,1*%
%TO.N,GND*%
X76200000Y-96520000D03*
%TD*%
D11*
%TO.N,GND*%
X73660000Y-55880000D03*
X73660000Y-93980000D03*
X113030000Y-99060000D03*
X73660000Y-53340000D03*
X82550000Y-99060000D03*
X121920000Y-93980000D03*
X101600000Y-99060000D03*
X79756000Y-52324000D03*
X93980000Y-99060000D03*
%TD*%
%TA.AperFunction,Conductor*%
%TO.N,GND*%
G36*
X119380840Y-19050010D02*
G01*
X119573856Y-19052536D01*
X119585172Y-19053203D01*
X119969967Y-19093646D01*
X119982783Y-19095676D01*
X120360419Y-19175945D01*
X120372954Y-19179304D01*
X120740136Y-19298609D01*
X120752253Y-19303260D01*
X121104964Y-19460297D01*
X121116514Y-19466182D01*
X121450872Y-19659223D01*
X121461753Y-19666289D01*
X121774101Y-19893224D01*
X121784187Y-19901392D01*
X122071096Y-20159725D01*
X122080274Y-20168903D01*
X122338607Y-20455812D01*
X122346775Y-20465898D01*
X122573710Y-20778246D01*
X122580779Y-20789132D01*
X122773813Y-21123478D01*
X122779706Y-21135043D01*
X122936739Y-21487746D01*
X122941390Y-21499863D01*
X123060695Y-21867045D01*
X123064054Y-21879582D01*
X123144322Y-22257214D01*
X123146353Y-22270034D01*
X123186795Y-22654815D01*
X123187463Y-22666153D01*
X123189989Y-22859158D01*
X123190000Y-22860781D01*
X123190000Y-96519218D01*
X123189989Y-96520841D01*
X123187463Y-96713846D01*
X123186795Y-96725184D01*
X123146353Y-97109965D01*
X123144322Y-97122785D01*
X123064054Y-97500417D01*
X123060695Y-97512954D01*
X122941390Y-97880136D01*
X122936739Y-97892253D01*
X122779706Y-98244956D01*
X122773813Y-98256521D01*
X122580779Y-98590867D01*
X122573710Y-98601753D01*
X122346775Y-98914101D01*
X122338607Y-98924187D01*
X122080274Y-99211096D01*
X122071096Y-99220274D01*
X121784187Y-99478607D01*
X121774101Y-99486775D01*
X121461753Y-99713710D01*
X121450867Y-99720779D01*
X121116521Y-99913813D01*
X121104956Y-99919706D01*
X120752253Y-100076739D01*
X120740136Y-100081390D01*
X120372954Y-100200695D01*
X120360417Y-100204054D01*
X119982785Y-100284322D01*
X119969965Y-100286353D01*
X119585184Y-100326795D01*
X119573846Y-100327463D01*
X119387914Y-100329896D01*
X119380839Y-100329989D01*
X119379219Y-100330000D01*
X76200781Y-100330000D01*
X76199160Y-100329989D01*
X76191890Y-100329893D01*
X76006153Y-100327463D01*
X75994815Y-100326795D01*
X75610034Y-100286353D01*
X75597214Y-100284322D01*
X75219582Y-100204054D01*
X75207045Y-100200695D01*
X74839863Y-100081390D01*
X74827746Y-100076739D01*
X74475043Y-99919706D01*
X74463478Y-99913813D01*
X74129132Y-99720779D01*
X74118246Y-99713710D01*
X73805898Y-99486775D01*
X73795812Y-99478607D01*
X73508903Y-99220274D01*
X73499725Y-99211096D01*
X73241392Y-98924187D01*
X73233224Y-98914101D01*
X73141124Y-98787337D01*
X73006286Y-98601749D01*
X72999220Y-98590867D01*
X72806182Y-98256514D01*
X72800297Y-98244964D01*
X72643260Y-97892253D01*
X72638609Y-97880136D01*
X72519304Y-97512954D01*
X72515945Y-97500417D01*
X72515203Y-97496928D01*
X72435676Y-97122783D01*
X72433646Y-97109965D01*
X72393203Y-96725172D01*
X72392536Y-96713856D01*
X72390011Y-96520840D01*
X72390005Y-96520000D01*
X73444974Y-96520000D01*
X73465060Y-96852076D01*
X73525032Y-97179329D01*
X73623999Y-97496928D01*
X73624005Y-97496943D01*
X73760543Y-97800319D01*
X73760545Y-97800321D01*
X73932657Y-98085031D01*
X73932662Y-98085039D01*
X74085862Y-98280583D01*
X75084728Y-97281716D01*
X75170278Y-97399466D01*
X75320534Y-97549722D01*
X75438281Y-97635270D01*
X74439415Y-98634136D01*
X74439415Y-98634137D01*
X74634960Y-98787337D01*
X74634968Y-98787342D01*
X74919678Y-98959454D01*
X74919680Y-98959456D01*
X75223056Y-99095994D01*
X75223071Y-99096000D01*
X75540670Y-99194967D01*
X75867923Y-99254939D01*
X76200000Y-99275025D01*
X76532076Y-99254939D01*
X76859329Y-99194967D01*
X77176928Y-99096000D01*
X77176943Y-99095994D01*
X77480319Y-98959456D01*
X77480321Y-98959454D01*
X77765030Y-98787343D01*
X77960583Y-98634137D01*
X77960583Y-98634136D01*
X76961717Y-97635270D01*
X77079466Y-97549722D01*
X77229722Y-97399466D01*
X77315270Y-97281717D01*
X78314136Y-98280583D01*
X78314137Y-98280583D01*
X78467343Y-98085030D01*
X78639454Y-97800321D01*
X78639456Y-97800319D01*
X78775994Y-97496943D01*
X78776000Y-97496928D01*
X78874967Y-97179329D01*
X78934939Y-96852076D01*
X78955025Y-96520000D01*
X116624974Y-96520000D01*
X116645060Y-96852076D01*
X116705032Y-97179329D01*
X116803999Y-97496928D01*
X116804005Y-97496943D01*
X116940543Y-97800319D01*
X116940545Y-97800321D01*
X117112657Y-98085031D01*
X117112662Y-98085039D01*
X117265862Y-98280583D01*
X118264728Y-97281716D01*
X118350278Y-97399466D01*
X118500534Y-97549722D01*
X118618281Y-97635270D01*
X117619415Y-98634136D01*
X117619415Y-98634137D01*
X117814960Y-98787337D01*
X117814968Y-98787342D01*
X118099678Y-98959454D01*
X118099680Y-98959456D01*
X118403056Y-99095994D01*
X118403071Y-99096000D01*
X118720670Y-99194967D01*
X119047923Y-99254939D01*
X119380000Y-99275025D01*
X119712076Y-99254939D01*
X120039329Y-99194967D01*
X120356928Y-99096000D01*
X120356943Y-99095994D01*
X120660319Y-98959456D01*
X120660321Y-98959454D01*
X120945030Y-98787343D01*
X121140583Y-98634137D01*
X121140583Y-98634136D01*
X120141717Y-97635270D01*
X120259466Y-97549722D01*
X120409722Y-97399466D01*
X120495270Y-97281717D01*
X121494136Y-98280583D01*
X121494137Y-98280583D01*
X121647343Y-98085030D01*
X121819454Y-97800321D01*
X121819456Y-97800319D01*
X121955994Y-97496943D01*
X121956000Y-97496928D01*
X122054967Y-97179329D01*
X122114939Y-96852076D01*
X122135025Y-96520000D01*
X122114939Y-96187923D01*
X122054967Y-95860670D01*
X121956000Y-95543071D01*
X121955994Y-95543056D01*
X121819456Y-95239680D01*
X121819454Y-95239678D01*
X121647342Y-94954968D01*
X121647337Y-94954960D01*
X121494136Y-94759415D01*
X120495270Y-95758281D01*
X120409722Y-95640534D01*
X120259466Y-95490278D01*
X120141716Y-95404728D01*
X121140583Y-94405862D01*
X121140583Y-94405861D01*
X120945039Y-94252662D01*
X120945031Y-94252657D01*
X120660321Y-94080545D01*
X120660319Y-94080543D01*
X120356943Y-93944005D01*
X120356928Y-93943999D01*
X120039329Y-93845032D01*
X119712076Y-93785060D01*
X119380000Y-93764974D01*
X119047923Y-93785060D01*
X118720670Y-93845032D01*
X118403071Y-93943999D01*
X118403056Y-93944005D01*
X118099680Y-94080543D01*
X118099678Y-94080545D01*
X117814968Y-94252657D01*
X117619415Y-94405862D01*
X118618282Y-95404729D01*
X118500534Y-95490278D01*
X118350278Y-95640534D01*
X118264729Y-95758282D01*
X117265862Y-94759415D01*
X117112657Y-94954968D01*
X116940545Y-95239678D01*
X116940543Y-95239680D01*
X116804005Y-95543056D01*
X116803999Y-95543071D01*
X116705032Y-95860670D01*
X116645060Y-96187923D01*
X116624974Y-96520000D01*
X78955025Y-96520000D01*
X78934939Y-96187923D01*
X78874967Y-95860670D01*
X78776000Y-95543071D01*
X78775994Y-95543056D01*
X78639456Y-95239680D01*
X78639454Y-95239678D01*
X78467342Y-94954968D01*
X78467337Y-94954960D01*
X78314136Y-94759415D01*
X77315270Y-95758281D01*
X77229722Y-95640534D01*
X77079466Y-95490278D01*
X76961716Y-95404728D01*
X77960583Y-94405862D01*
X77960583Y-94405861D01*
X77765039Y-94252662D01*
X77765031Y-94252657D01*
X77480321Y-94080545D01*
X77480319Y-94080543D01*
X77176943Y-93944005D01*
X77176928Y-93943999D01*
X76859329Y-93845032D01*
X76532076Y-93785060D01*
X76200000Y-93764974D01*
X75867923Y-93785060D01*
X75540670Y-93845032D01*
X75223071Y-93943999D01*
X75223056Y-93944005D01*
X74919680Y-94080543D01*
X74919678Y-94080545D01*
X74634968Y-94252657D01*
X74439415Y-94405862D01*
X75438282Y-95404729D01*
X75320534Y-95490278D01*
X75170278Y-95640534D01*
X75084729Y-95758282D01*
X74085862Y-94759415D01*
X73932657Y-94954968D01*
X73760545Y-95239678D01*
X73760543Y-95239680D01*
X73624005Y-95543056D01*
X73623999Y-95543071D01*
X73525032Y-95860670D01*
X73465060Y-96187923D01*
X73444974Y-96520000D01*
X72390005Y-96520000D01*
X72390000Y-96519218D01*
X72390000Y-22860781D01*
X72390005Y-22860000D01*
X73444974Y-22860000D01*
X73465060Y-23192076D01*
X73525032Y-23519329D01*
X73623999Y-23836928D01*
X73624005Y-23836943D01*
X73760543Y-24140319D01*
X73760545Y-24140321D01*
X73932657Y-24425031D01*
X73932662Y-24425039D01*
X74085862Y-24620583D01*
X75084728Y-23621716D01*
X75170278Y-23739466D01*
X75320534Y-23889722D01*
X75438281Y-23975270D01*
X74439415Y-24974136D01*
X74439415Y-24974137D01*
X74634960Y-25127337D01*
X74634968Y-25127342D01*
X74919678Y-25299454D01*
X74919680Y-25299456D01*
X75223056Y-25435994D01*
X75223071Y-25436000D01*
X75540670Y-25534967D01*
X75867923Y-25594939D01*
X76200000Y-25615025D01*
X76532076Y-25594939D01*
X76859329Y-25534967D01*
X77176928Y-25436000D01*
X77176943Y-25435994D01*
X77480319Y-25299456D01*
X77480321Y-25299454D01*
X77765030Y-25127343D01*
X77960583Y-24974137D01*
X77960583Y-24974136D01*
X76961717Y-23975270D01*
X77079466Y-23889722D01*
X77229722Y-23739466D01*
X77315270Y-23621717D01*
X78314136Y-24620583D01*
X78314137Y-24620583D01*
X78467343Y-24425030D01*
X78639454Y-24140321D01*
X78639456Y-24140319D01*
X78775994Y-23836943D01*
X78776000Y-23836928D01*
X78874967Y-23519329D01*
X78934939Y-23192076D01*
X78955025Y-22860000D01*
X116624974Y-22860000D01*
X116645060Y-23192076D01*
X116705032Y-23519329D01*
X116803999Y-23836928D01*
X116804005Y-23836943D01*
X116940543Y-24140319D01*
X116940545Y-24140321D01*
X117112657Y-24425031D01*
X117112662Y-24425039D01*
X117265862Y-24620583D01*
X118264728Y-23621716D01*
X118350278Y-23739466D01*
X118500534Y-23889722D01*
X118618281Y-23975270D01*
X117619415Y-24974136D01*
X117619415Y-24974137D01*
X117814960Y-25127337D01*
X117814968Y-25127342D01*
X118099678Y-25299454D01*
X118099680Y-25299456D01*
X118403056Y-25435994D01*
X118403071Y-25436000D01*
X118720670Y-25534967D01*
X119047923Y-25594939D01*
X119380000Y-25615025D01*
X119712076Y-25594939D01*
X120039329Y-25534967D01*
X120356928Y-25436000D01*
X120356943Y-25435994D01*
X120660319Y-25299456D01*
X120660321Y-25299454D01*
X120945030Y-25127343D01*
X121140583Y-24974137D01*
X121140583Y-24974136D01*
X120141717Y-23975270D01*
X120259466Y-23889722D01*
X120409722Y-23739466D01*
X120495270Y-23621717D01*
X121494136Y-24620583D01*
X121494137Y-24620583D01*
X121647343Y-24425030D01*
X121819454Y-24140321D01*
X121819456Y-24140319D01*
X121955994Y-23836943D01*
X121956000Y-23836928D01*
X122054967Y-23519329D01*
X122114939Y-23192076D01*
X122135025Y-22860000D01*
X122114939Y-22527923D01*
X122054967Y-22200670D01*
X121956000Y-21883071D01*
X121955994Y-21883056D01*
X121819456Y-21579680D01*
X121819454Y-21579678D01*
X121647342Y-21294968D01*
X121647337Y-21294960D01*
X121494136Y-21099415D01*
X120495270Y-22098281D01*
X120409722Y-21980534D01*
X120259466Y-21830278D01*
X120141716Y-21744728D01*
X121140583Y-20745862D01*
X121140583Y-20745861D01*
X120945039Y-20592662D01*
X120945031Y-20592657D01*
X120660321Y-20420545D01*
X120660319Y-20420543D01*
X120356943Y-20284005D01*
X120356928Y-20283999D01*
X120039329Y-20185032D01*
X119712076Y-20125060D01*
X119380000Y-20104974D01*
X119047923Y-20125060D01*
X118720670Y-20185032D01*
X118403071Y-20283999D01*
X118403056Y-20284005D01*
X118099680Y-20420543D01*
X118099678Y-20420545D01*
X117814968Y-20592657D01*
X117619415Y-20745862D01*
X118618282Y-21744729D01*
X118500534Y-21830278D01*
X118350278Y-21980534D01*
X118264729Y-22098282D01*
X117265862Y-21099415D01*
X117112657Y-21294968D01*
X116940545Y-21579678D01*
X116940543Y-21579680D01*
X116804005Y-21883056D01*
X116803999Y-21883071D01*
X116705032Y-22200670D01*
X116645060Y-22527923D01*
X116624974Y-22860000D01*
X78955025Y-22860000D01*
X78934939Y-22527923D01*
X78874967Y-22200670D01*
X78776000Y-21883071D01*
X78775994Y-21883056D01*
X78639456Y-21579680D01*
X78639454Y-21579678D01*
X78467342Y-21294968D01*
X78467337Y-21294960D01*
X78314136Y-21099415D01*
X77315270Y-22098281D01*
X77229722Y-21980534D01*
X77079466Y-21830278D01*
X76961716Y-21744728D01*
X77960583Y-20745862D01*
X77960583Y-20745861D01*
X77765039Y-20592662D01*
X77765031Y-20592657D01*
X77480321Y-20420545D01*
X77480319Y-20420543D01*
X77176943Y-20284005D01*
X77176928Y-20283999D01*
X76859329Y-20185032D01*
X76532076Y-20125060D01*
X76200000Y-20104974D01*
X75867923Y-20125060D01*
X75540670Y-20185032D01*
X75223071Y-20283999D01*
X75223056Y-20284005D01*
X74919680Y-20420543D01*
X74919678Y-20420545D01*
X74634968Y-20592657D01*
X74439415Y-20745862D01*
X75438282Y-21744729D01*
X75320534Y-21830278D01*
X75170278Y-21980534D01*
X75084729Y-22098282D01*
X74085862Y-21099415D01*
X73932657Y-21294968D01*
X73760545Y-21579678D01*
X73760543Y-21579680D01*
X73624005Y-21883056D01*
X73623999Y-21883071D01*
X73525032Y-22200670D01*
X73465060Y-22527923D01*
X73444974Y-22860000D01*
X72390005Y-22860000D01*
X72390011Y-22859159D01*
X72390011Y-22859158D01*
X72392536Y-22666142D01*
X72393203Y-22654828D01*
X72433646Y-22270029D01*
X72435677Y-22257214D01*
X72447696Y-22200670D01*
X72515946Y-21879575D01*
X72519304Y-21867045D01*
X72612676Y-21579678D01*
X72638611Y-21499857D01*
X72643260Y-21487746D01*
X72800301Y-21135027D01*
X72806178Y-21123493D01*
X72999228Y-20789118D01*
X73006280Y-20778258D01*
X73233231Y-20465889D01*
X73241385Y-20455820D01*
X73499734Y-20168893D01*
X73508893Y-20159734D01*
X73795820Y-19901385D01*
X73805889Y-19893231D01*
X74118258Y-19666280D01*
X74129118Y-19659228D01*
X74463493Y-19466178D01*
X74475027Y-19460301D01*
X74827753Y-19303257D01*
X74839857Y-19298611D01*
X75207051Y-19179302D01*
X75219575Y-19175946D01*
X75597219Y-19095676D01*
X75610029Y-19093646D01*
X75994828Y-19053203D01*
X76006142Y-19052536D01*
X76199159Y-19050010D01*
X76200781Y-19050000D01*
X119379219Y-19050000D01*
X119380840Y-19050010D01*
G37*
%TD.AperFunction*%
%TD*%
M02*
